<?xml version="1.0" encoding="utf-8"?>
<!-- Generator: Adobe Illustrator 19.0.0, SVG Export Plug-In . SVG Version: 6.00 Build 0)  -->
<svg version="1.1" id="Capa_1" xmlns="http://www.w3.org/2000/svg" xmlns:xlink="http://www.w3.org/1999/xlink" x="0px" y="0px"
	 viewBox="0 0 600 600" style="enable-background:new 0 0 600 600;" xml:space="preserve">
<style type="text/css">
	.st0{fill:#FFFFFF;}
	.st1{fill:#A2C6EA;}
	.st2{opacity:0.6;fill:#A2C6EA;enable-background:new    ;}
	.st3{fill:none;stroke:#263238;stroke-linecap:round;stroke-linejoin:round;stroke-miterlimit:10;}
	.st4{fill:#407BFF;stroke:#263238;stroke-linecap:round;stroke-linejoin:round;stroke-miterlimit:10;}
	.st5{fill:#FFFFFF;stroke:#263238;stroke-linecap:round;stroke-linejoin:round;stroke-miterlimit:10;}
	.st6{fill:none;stroke:#263238;stroke-width:2;stroke-linecap:round;stroke-linejoin:round;stroke-miterlimit:10;}
	.st7{fill:none;stroke:#263238;stroke-linecap:round;stroke-linejoin:round;}
	.st8{fill:none;stroke:#263238;stroke-linecap:round;stroke-linejoin:round;stroke-dasharray:0.9949,2.9846;}
	.st9{fill:none;stroke:#263238;stroke-linecap:round;stroke-linejoin:round;stroke-dasharray:1.0013,3.0038;}
	.st10{fill:#263238;stroke:#263238;stroke-linecap:round;stroke-linejoin:round;stroke-miterlimit:10;}
	.st11{fill:none;stroke:#FFFFFF;stroke-linecap:round;stroke-linejoin:round;stroke-miterlimit:10;}
	.st12{fill:#263238;}
	.st13{opacity:0.3;clip-path:url(#XMLID_9_);fill-opacity:0.7;}
	.st14{opacity:0.3;clip-path:url(#XMLID_10_);fill-opacity:0.7;}
	.st15{opacity:0.2;clip-path:url(#XMLID_35_);fill-opacity:0.7;}
	.st16{opacity:0.3;clip-path:url(#XMLID_36_);fill-opacity:0.7;}
	.st17{opacity:0.3;clip-path:url(#XMLID_37_);fill-opacity:0.7;}
	.st18{fill:#757575;stroke:#263238;stroke-linecap:round;stroke-linejoin:round;stroke-miterlimit:10;}
	.st19{fill:#999999;stroke:#263238;stroke-linecap:round;stroke-linejoin:round;stroke-miterlimit:10;}
	.st20{fill:none;stroke:#263238;stroke-linecap:round;stroke-linejoin:round;stroke-dasharray:1.0126,3.0378;}
	.st21{fill:none;stroke:#263238;stroke-linecap:round;stroke-linejoin:round;stroke-dasharray:0.9964,2.9891;}
</style>
<g id="XMLID_2_">
	<path id="XMLID_3_" class="st0" d="M150.6,286.7c0.2,0.2,0.3,0.4,0.5,0.7c11.5,14.9,28.6,36.1,46.9,43c7.7,2.9,20.5-1,21.3-11
		c0.8-9.8-10.9-16.2-17.8-20.7c-9.3-6-17.1-12.1-24.4-20.5c-17.3-19.6-28.5-44.2-32.1-70.1c-11.2-79.7,45.7-150.9,125.3-157.9
		c56.7-5,111.1,25.4,135.9,76.6c10.1,20.8,15.6,43.7,14.6,66.8c-0.5,11.7-2.6,23.2-6.1,34.4c-2.9,9.6-10.5,20.5-11.2,30.5
		c-1.2,16.4,19.2,16.1,25.2,4c18.7-38.1,23.3-77.8,11.4-118.6C411.4,46,308.1-2.1,214.5,38.3c-60.8,26.3-101,92.9-96.5,158.7
		C120.1,229,131,261.2,150.6,286.7z"/>
	<path id="XMLID_94_" class="st0" d="M365.7,236.3c7.5,2.7,14-1.3,17.5-10.7c4.5-12,6.6-24.5,6.8-37.3c-0.4-5.2-0.4-10.4-1.2-15.5
		c-9.3-61.5-65.8-101.7-127.3-90.6c-77.2,14-113.6,106.9-66.5,169.8c5.4,7.2,13.3,9.1,19.5,4.5c6.1-4.6,6.7-12.1,1.4-19.4
		c-9.6-13.2-14.9-27.9-16-44.3c-3.9-58.4,55.4-102.5,110.3-82c43.2,16.2,64.6,62.6,49,106C355.6,226.3,358.1,233.6,365.7,236.3z"/>
	<path id="XMLID_97_" class="st0" d="M480.1,333.9c-3.1-16.3-10.3-31.3-25.8-40c-14.2-8-31.1-4.6-46.5-6.9
		c-14-2.1-25.5-9.2-39.9-3.9c-8.2,3-26.3,0.3-32.3-6.4c-8.7-9.7-1.9-31.1-1.9-43.1c0-16.4,0-32.8-0.2-49.3
		c-0.2-24.3-21.7-46.2-45.9-47.5c-27.6-1.5-52.1,17-53.9,42.7c-2.1,31.2-1.2,62.5-0.8,93.7l-0.2,0.1l0.3,27.1
		c-0.8,6.9-0.6,13.7,0.2,20.6l-0.2,5.6l-0.2,0.1c0,13.7,0,27.4,0,42.1c-3-2-5.4-3.1-7.4-4.3c-9.7-5.6-19.3-11-30-14.4
		c-25.3-7.9-49.7,6.6-54.8,32.6c-1,4.7-1,9.4-0.1,14.2c1.2,11.9,8.1,20.7,16.2,28.7c1,1.2,2.1,2.5,3.1,3.7
		c17.4,22.1,36.1,43.2,51.5,66.8c10.2,15.5,20.7,30.6,34.1,43.5c24.1,23.3,53,35.3,86.5,35.8c6,0.6,12.1,0.7,18.1,0
		c11.6,0.2,22.9-2,33.8-5.9c0.9-0.1,1.7-0.1,2.6-0.4c49.9-14.6,91.3-65.3,94.4-117.3c1.8-31.6,1.6-63.2,1.3-94.8
		C482.1,349.4,481.6,341.5,480.1,333.9z M394.5,290.2c0-0.3-0.1-0.5-0.2-0.7c0.2,0.2,0.4,0.3,0.6,0.5
		C394.8,290.1,394.6,290.1,394.5,290.2z M324.4,284.3c0,0,0.1,0,0.1,0.1C324.5,284.3,324.5,284.3,324.4,284.3z M330.3,289.1
		c-0.1-0.1-0.1-0.2-0.2-0.3c0.2,0,0.3,0.1,0.5,0.1C330.5,289,330.4,289,330.3,289.1z M254.8,351c0.1,0,0.3,0,0.4,0
		c0,0.1,0,0.2,0,0.4C255,351.2,254.9,351.1,254.8,351z M155.8,412.3c0.1,0.1,0.2,0.2,0.3,0.3c0,0.1,0,0.1-0.1,0.2
		c-0.2,0-0.4-0.1-0.6-0.2C155.6,412.5,155.7,412.4,155.8,412.3z M426.2,509.7c-22,24.8-55,39.5-88.2,39.1
		c-35.4-0.4-64.1-16.3-86.4-43.5c-20.5-24.9-37.3-52.6-57.8-77.4c-7.3-8.8-14.6-17.5-22-26.3c-5.4-6.5-5.8-13.9-1.8-19.7
		c4.3-6.2,11.4-8,19.7-5.1c5.1,1.8,9.9,4.2,14.6,6.8c13.8,7.6,26.8,16.5,39.6,25.6c4.6,3.3,12.6,5.9,15.6-1c0.8-1.9,0.9-4.1,0.8-6.2
		c-0.2-69.5,0-139,0-208.5c0-3.4-0.2-6.9,0.4-10.3c1.9-11,12.7-19.8,23.5-19.1c12,0.7,21.1,9.9,21.2,21.8
		c0.2,37.6,3.1,76.8-0.6,114.3c-2.3,23.6,14.9,6,25.1,5.7c9.1-0.3,17.2,4.9,23,11.5c2.8,3.2,5.8,3.6,9.1,0.6
		c8.8-8,24.2-13.5,35.1-5.2c3.7,2.9,4.8,10.4,9.8,11.2c2.5,0.4,4.2-1.4,6-2.5c13.2-8,42.4-6.2,40.7,14.9c1.2,11.1,0.8,22.3,0.8,33.5
		C454.5,417.3,460.4,471,426.2,509.7z"/>
</g>
<g id="XMLID_1_">
	<g id="XMLID_278_">
		<path id="XMLID_280_" class="st1" d="M45.9,549.7h294.6c1.2-1.9,2.4-3.8,3.6-5.7c31.7-48.2,82.4-82.6,137.9-98.8
			c24.8-7.2,51.7-11.5,71.7-28c20.5-16.9,30-43.9,34-70.2c4.9-31.8,2.3-67.5-19.3-91.4c-25.4-28.1-67.9-31.2-101-49.6
			c-56.9-31.7-79-103.8-130.7-143.3C304,37.8,259.8,28.1,220.3,33.6C164.3,41.3,111.5,78.9,95.7,134c-4.4,15.3-6.2,31.8-4.8,49.4
			c2.5,32.9,9.6,66.1,2.9,98.4c-7.3,35.6-30.5,65.6-44.3,99.2c-17.2,41.8-19.6,88.7-12.2,133.3C39.3,526.2,42,538.1,45.9,549.7z"/>
		<path id="XMLID_279_" class="st2" d="M45.9,549.7h294.6c1.2-1.9,2.4-3.8,3.6-5.7c31.7-48.2,82.4-82.6,137.9-98.8
			c24.8-7.2,51.7-11.5,71.7-28c20.5-16.9,30-43.9,34-70.2c4.9-31.8,2.3-67.5-19.3-91.4c-25.4-28.1-67.9-31.2-101-49.6
			c-56.9-31.7-79-103.8-130.7-143.3C304,37.8,259.8,28.1,220.3,33.6C164.3,41.3,111.5,78.9,95.7,134c-4.4,15.3-6.2,31.8-4.8,49.4
			c2.5,32.9,9.6,66.1,2.9,98.4c-7.3,35.6-30.5,65.6-44.3,99.2c-17.2,41.8-19.6,88.7-12.2,133.3C39.3,526.2,42,538.1,45.9,549.7z"/>
	</g>
	<line id="XMLID_277_" class="st3" x1="8.2" y1="549.7" x2="591.8" y2="549.7"/>
	<g id="XMLID_256_">
		<path id="XMLID_274_" class="st3" d="M338.8,105.7V83.8l-16.4-1.4c-1-3.5-2.3-6.8-4.1-9.8l10.6-12.6l-15.5-15.5L300.9,55
			c-3.1-1.7-6.4-3.1-9.8-4.1l-1.4-16.4h-21.9L266.3,51c-3.5,1-6.8,2.3-9.8,4.1l-12.6-10.6l-15.5,15.5L239,72.5
			c-1.7,3.1-3.1,6.4-4.1,9.8l-16.4,1.4v21.9l16.4,1.4c1,3.5,2.3,6.8,4.1,9.8l-10.6,12.6l15.5,15.5l12.6-10.6
			c3.1,1.7,6.4,3.1,9.8,4.1l1.4,16.4h21.9l1.4-16.4c3.5-1,6.8-2.3,9.8-4.1l12.6,10.6l15.5-15.5l-10.6-12.6c1.7-3.1,3.1-6.4,4.1-9.8
			L338.8,105.7z M278.7,120.2c-14.1,0-25.4-11.4-25.4-25.4c0-14.1,11.4-25.4,25.4-25.4c14.1,0,25.4,11.4,25.4,25.4
			C304.1,108.8,292.7,120.2,278.7,120.2z"/>
		<path id="XMLID_271_" class="st3" d="M574.2,319.7v-10.5l-7.9-0.7c-0.5-1.7-1.1-3.2-1.9-4.7l5.1-6l-7.4-7.4l-6,5.1
			c-1.5-0.8-3.1-1.5-4.7-1.9l-0.7-7.9h-10.5l-0.7,7.9c-1.7,0.5-3.2,1.1-4.7,1.9l-6-5.1l-7.4,7.4l5.1,6c-0.8,1.5-1.5,3.1-1.9,4.7
			l-7.9,0.7v10.5l7.9,0.7c0.5,1.7,1.1,3.2,1.9,4.7l-5.1,6l7.4,7.4l6-5.1c1.5,0.8,3.1,1.5,4.7,1.9l0.7,7.9h10.5l0.7-7.9
			c1.7-0.5,3.2-1.1,4.7-1.9l6,5.1l7.4-7.4l-5.1-6c0.8-1.5,1.5-3.1,1.9-4.7L574.2,319.7z M545.3,326.7c-6.7,0-12.2-5.5-12.2-12.2
			c0-6.7,5.5-12.2,12.2-12.2c6.7,0,12.2,5.5,12.2,12.2C557.5,321.2,552.1,326.7,545.3,326.7z"/>
		<g id="XMLID_264_">
			<path id="XMLID_270_" class="st3" d="M566.3,128.6c0.5-2.1,0.7-4.2,0.7-6.4c0-15.8-12.8-28.6-28.6-28.6c-2.6,0-5.1,0.3-7.5,1
				c-4.7-8.3-13.7-14-23.9-14c-14.6,0-26.5,11.4-27.4,25.8c-1.3-0.3-2.7-0.4-4.2-0.4c-11.5,0-21,8.7-22.3,19.9
				c-6.8,0.1-12.2,5.7-12.2,12.5c0,6.9,5.6,12.5,12.5,12.5h105c6.9,0,12.5-5.6,12.5-12.5C570.9,134.3,569.1,130.9,566.3,128.6z"/>
			<g id="XMLID_265_">
				<line id="XMLID_269_" class="st3" x1="508.5" y1="141.2" x2="508.5" y2="170.1"/>
				<line id="XMLID_268_" class="st3" x1="508.5" y1="123.8" x2="508.5" y2="135.4"/>
				<line id="XMLID_267_" class="st3" x1="508.5" y1="113" x2="508.5" y2="119.2"/>
				<polyline id="XMLID_266_" class="st3" points="503.1,166.7 508.5,173.5 514,166.7 				"/>
			</g>
		</g>
		<g id="XMLID_257_">
			<path id="XMLID_263_" class="st3" d="M246.3,468c0.5-2.1,0.7-4.2,0.7-6.4c0-15.8-12.8-28.6-28.6-28.6c-2.6,0-5.1,0.3-7.5,1
				c-4.7-8.3-13.7-14-23.9-14c-14.6,0-26.5,11.4-27.4,25.8c-1.3-0.3-2.7-0.4-4.2-0.4c-11.5,0-21,8.7-22.3,19.9
				c-6.8,0.1-12.2,5.7-12.2,12.5c0,6.9,5.6,12.5,12.5,12.5h105c6.9,0,12.5-5.6,12.5-12.5C250.9,473.8,249.1,470.3,246.3,468z"/>
			<g id="XMLID_258_">
				<line id="XMLID_262_" class="st3" x1="188.5" y1="484.8" x2="188.5" y2="455.8"/>
				<line id="XMLID_261_" class="st3" x1="188.5" y1="502.1" x2="188.5" y2="490.6"/>
				<line id="XMLID_260_" class="st3" x1="188.5" y1="513" x2="188.5" y2="506.8"/>
				<polyline id="XMLID_259_" class="st3" points="194,459.2 188.5,452.5 183.1,459.2 				"/>
			</g>
		</g>
	</g>
	<g id="XMLID_169_">
		<path id="XMLID_255_" class="st4" d="M380.9,123.2H18.3V105c0-2.3,1.9-4.2,4.2-4.2h354.1c2.3,0,4.2,1.9,4.2,4.2V123.2z"/>
		<rect id="XMLID_254_" x="34.2" y="127.4" class="st5" width="366.5" height="257.9"/>
		<circle id="XMLID_253_" class="st5" cx="400.7" cy="112" r="5.6"/>
		<circle id="XMLID_252_" class="st5" cx="380.9" cy="112" r="5.6"/>
		<circle id="XMLID_251_" class="st5" cx="361.2" cy="112" r="5.6"/>
		<g id="XMLID_247_">
			<line id="XMLID_250_" class="st6" x1="389.6" y1="138.5" x2="375.1" y2="138.5"/>
			<line id="XMLID_249_" class="st6" x1="389.6" y1="144.3" x2="375.1" y2="144.3"/>
			<line id="XMLID_248_" class="st6" x1="389.6" y1="150.2" x2="375.1" y2="150.2"/>
		</g>
		<g id="XMLID_243_">
			<line id="XMLID_246_" class="st6" x1="59.6" y1="290.6" x2="169.4" y2="290.6"/>
			<line id="XMLID_245_" class="st6" x1="59.6" y1="299.3" x2="169.4" y2="299.3"/>
			<line id="XMLID_244_" class="st6" x1="59.6" y1="308.1" x2="146.2" y2="308.1"/>
		</g>
		<g id="XMLID_229_">
			<g id="XMLID_237_">
				<g id="XMLID_232_">
					<line id="XMLID_235_" class="st7" x1="292.5" y1="130.3" x2="292.5" y2="130.8"/>
					<line id="XMLID_234_" class="st8" x1="292.5" y1="133.8" x2="292.5" y2="379"/>
					<line id="XMLID_233_" class="st7" x1="292.5" y1="380.5" x2="292.5" y2="381"/>
				</g>
			</g>
			<g id="XMLID_231_">
				<g id="XMLID_152_">
					<line id="XMLID_158_" class="st7" x1="38.6" y1="327.5" x2="39.1" y2="327.5"/>
					<line id="XMLID_156_" class="st9" x1="42.1" y1="327.5" x2="393.1" y2="327.5"/>
					<line id="XMLID_153_" class="st7" x1="394.6" y1="327.5" x2="395.1" y2="327.5"/>
				</g>
			</g>
			<rect id="XMLID_230_" x="290.1" y="325.1" class="st5" width="4.8" height="4.8"/>
		</g>
		<g id="XMLID_222_">
			<path id="XMLID_228_" class="st4" d="M182.6,28.4h-68.8c-1.7,0-3,1.4-3,3v32c0,1.7,1.4,3,3,3h30.9l3.5,12.6l3.5-12.6h30.9
				c1.7,0,3-1.4,3-3v-32C185.6,29.8,184.3,28.4,182.6,28.4z"/>
			<g id="XMLID_223_">
				<line id="XMLID_227_" class="st6" x1="122.2" y1="37.6" x2="174.2" y2="37.6"/>
				<line id="XMLID_226_" class="st6" x1="122.2" y1="44.2" x2="174.2" y2="44.2"/>
				<line id="XMLID_225_" class="st6" x1="122.2" y1="50.8" x2="174.2" y2="50.8"/>
				<line id="XMLID_224_" class="st6" x1="122.2" y1="57.3" x2="161.4" y2="57.3"/>
			</g>
		</g>
		<g id="XMLID_213_">
			<rect id="XMLID_221_" x="79.7" y="368.2" class="st10" width="74.8" height="46.9"/>
			<rect id="XMLID_220_" x="79.7" y="368.2" class="st4" width="74.8" height="7.1"/>
			<g id="XMLID_214_">
				<line id="XMLID_219_" class="st11" x1="87.3" y1="381.4" x2="106.4" y2="381.4"/>
				<line id="XMLID_218_" class="st11" x1="96.9" y1="386.7" x2="130" y2="386.7"/>
				<line id="XMLID_217_" class="st11" x1="92.6" y1="391.7" x2="102.4" y2="391.7"/>
				<line id="XMLID_216_" class="st11" x1="96.9" y1="397.5" x2="119.2" y2="397.5"/>
				<line id="XMLID_215_" class="st11" x1="87.3" y1="402.9" x2="106.4" y2="402.9"/>
			</g>
		</g>
		<g id="XMLID_204_">
			<line id="XMLID_212_" class="st3" x1="273.3" y1="281.2" x2="209" y2="281.2"/>
			<path id="XMLID_211_" class="st3" d="M274.5,310.9c0,0,0-29.9-33.4-29.9s-33.4,29.9-33.4,29.9"/>
			<circle id="XMLID_210_" class="st4" cx="274.5" cy="310.9" r="2.8"/>
			<circle id="XMLID_209_" class="st4" cx="207.8" cy="310.9" r="2.8"/>
			<g id="XMLID_205_">
				<rect id="XMLID_208_" x="272" y="278.6" class="st4" width="4.9" height="4.9"/>
				<rect id="XMLID_207_" x="238.7" y="278.6" class="st4" width="4.9" height="4.9"/>
				<rect id="XMLID_206_" x="205.3" y="278.6" class="st4" width="4.9" height="4.9"/>
			</g>
		</g>
		<path id="XMLID_201_" class="st4" d="M99.5,191.4v-9.9l-7.4-0.6c-0.4-1.6-1.1-3-1.8-4.4l4.8-5.7l-7-7l-5.7,4.8
			c-1.4-0.8-2.9-1.4-4.4-1.8l-0.6-7.4h-9.9l-0.6,7.4c-1.6,0.4-3,1.1-4.4,1.8l-5.7-4.8l-7,7l4.8,5.7c-0.8,1.4-1.4,2.9-1.8,4.4
			l-7.4,0.6v9.9l7.4,0.6c0.4,1.6,1.1,3,1.8,4.4l-4.8,5.7l7,7l5.7-4.8c1.4,0.8,2.9,1.4,4.4,1.8l0.6,7.4h9.9l0.6-7.4
			c1.6-0.4,3-1.1,4.4-1.8l5.7,4.8l7-7l-4.8-5.7c0.8-1.4,1.4-2.9,1.8-4.4L99.5,191.4z M72.4,198c-6.3,0-11.5-5.1-11.5-11.5
			S66.1,175,72.4,175s11.5,5.1,11.5,11.5S78.8,198,72.4,198z"/>
		<path id="XMLID_198_" class="st4" d="M133,213.6v-6.8l-5.1-0.4c-0.3-1.1-0.7-2.1-1.3-3l3.3-3.9l-4.8-4.8l-3.9,3.3
			c-0.9-0.5-2-0.9-3-1.3l-0.4-5.1h-6.8l-0.4,5.1c-1.1,0.3-2.1,0.7-3,1.3l-3.9-3.3l-4.8,4.8l3.3,3.9c-0.5,0.9-0.9,2-1.3,3l-5.1,0.4
			v6.8l5.1,0.4c0.3,1.1,0.7,2.1,1.3,3l-3.3,3.9l4.8,4.8l3.9-3.3c0.9,0.5,2,0.9,3,1.3l0.4,5.1h6.8l0.4-5.1c1.1-0.3,2.1-0.7,3-1.3
			l3.9,3.3l4.8-4.8l-3.3-3.9c0.5-0.9,0.9-2,1.3-3L133,213.6z M114.5,218c-4.3,0-7.8-3.5-7.8-7.8s3.5-7.8,7.8-7.8
			c4.3,0,7.8,3.5,7.8,7.8S118.8,218,114.5,218z"/>
		<g id="XMLID_194_">
			<line id="XMLID_197_" class="st6" x1="306.3" y1="343.9" x2="360.3" y2="343.9"/>
			<line id="XMLID_196_" class="st6" x1="306.3" y1="352.5" x2="360.3" y2="352.5"/>
			<line id="XMLID_195_" class="st6" x1="306.3" y1="361.3" x2="337.1" y2="361.3"/>
		</g>
		<path id="XMLID_193_" class="st4" d="M235.1,364.9h-28.4c-3.9,0-7-3.1-7-7l0,0c0-3.9,3.1-7,7-7h28.4c3.9,0,7,3.1,7,7l0,0
			C242.1,361.8,238.9,364.9,235.1,364.9z"/>
		<path id="XMLID_192_" class="st4" d="M288.1,364.9h-28.4c-3.9,0-7-3.1-7-7l0,0c0-3.9,3.1-7,7-7h28.4c3.9,0,7,3.1,7,7l0,0
			C295.1,361.8,291.9,364.9,288.1,364.9z"/>
		<g id="XMLID_188_">
			<rect id="XMLID_191_" x="310.2" y="215.3" class="st5" width="60.3" height="60.3"/>
			<line id="XMLID_190_" class="st5" x1="310.2" y1="215.3" x2="370.5" y2="275.6"/>
			<line id="XMLID_189_" class="st5" x1="370.5" y1="215.3" x2="310.2" y2="275.6"/>
		</g>
		<g id="XMLID_179_">
			<rect id="XMLID_187_" x="361.2" y="179.5" class="st10" width="74.8" height="46.9"/>
			<rect id="XMLID_186_" x="361.2" y="179.5" class="st4" width="74.8" height="7.1"/>
			<g id="XMLID_180_">
				<line id="XMLID_185_" class="st11" x1="368.8" y1="192.6" x2="388" y2="192.6"/>
				<line id="XMLID_184_" class="st11" x1="378.4" y1="197.9" x2="411.5" y2="197.9"/>
				<line id="XMLID_183_" class="st11" x1="374.2" y1="202.9" x2="383.9" y2="202.9"/>
				<line id="XMLID_182_" class="st11" x1="378.4" y1="208.8" x2="400.7" y2="208.8"/>
				<line id="XMLID_181_" class="st11" x1="368.8" y1="214.1" x2="388" y2="214.1"/>
			</g>
		</g>
		<g id="XMLID_176_">
			<polygon id="XMLID_178_" class="st5" points="333.9,146.8 333.9,160.9 327.7,167.1 313.6,167.1 313.6,146.8 			"/>
			<polygon id="XMLID_177_" class="st5" points="333.9,160.9 327.7,167.1 327.7,160.9 			"/>
		</g>
		<g id="XMLID_173_">
			<polygon id="XMLID_175_" class="st5" points="118.2,255.7 118.2,269.7 112,275.9 97.9,275.9 97.9,255.7 			"/>
			<polygon id="XMLID_174_" class="st5" points="118.2,269.7 112,275.9 112,269.7 			"/>
		</g>
		<g id="XMLID_170_">
			<polygon id="XMLID_172_" class="st5" points="41.5,342.4 41.5,356.5 35.3,362.7 21.2,362.7 21.2,342.4 			"/>
			<polygon id="XMLID_171_" class="st5" points="41.5,356.5 35.3,362.7 35.3,356.5 			"/>
		</g>
	</g>
	<g id="XMLID_4_">
		<path id="XMLID_168_" class="st5" d="M295.4,256.6c-7.4,0.6-16.8-8.2-16.8-8.2s-1.4,1.4-2.6-0.3c-1.2-1.7-6.4-5.7-6.7-9.2
			c-0.3-3.5,5.9-9.1,5.9-9.1c-4.7,1.3-5.2-1.5-5.2-1.5s8-6.6,10.8-6.8c1.1-0.1,5.8,2.7,10.4,6.3c4.8,3.9,13.8,17.5,13.8,17.5
			s30.5,22.1,38.2,27.8c10.2,7.5,22.2,20.7,22.2,20.7s40.5,18.2,51.6,28.3l-15.1,35.7c0,0-36.8-24.6-40.5-30.9
			c-3.7-6.3-7.4-2.5-11-6.6c-3.7-4.1-7.2-8.8-7.2-8.8s-8.9-3.9-17.5-12.7c-8.6-8.8-16.2-22.3-20.9-30.4
			C299.9,260.4,295.4,256.6,295.4,256.6z"/>
		<path id="XMLID_167_" class="st5" d="M297.7,251.4c0,0-11-2.7-11.9-9.9c-0.3-2.4-2.4-5.1-2.4-5.1s-10.2-0.5-9.6-4.7l13.7-1.2
			c0,0,7.5,2.4,11.9,10"/>
		<path id="XMLID_166_" class="st3" d="M278.7,248.4c0,0,0.7-1,0.5-3c0,0,3-0.5,2.7-3.2c0,0,4.5-0.5,1.6-5.8"/>
		<path id="XMLID_165_" class="st3" d="M281.8,242.2c0,0-6-4.5-6.7-6.5"/>
		<path id="XMLID_164_" class="st3" d="M279.1,245.4c0,0-6.4-3.9-6.5-6.2"/>
		<path id="XMLID_163_" class="st3" d="M280.6,225.4c0,0-2,3.7-5.4,4.4"/>
		<path id="XMLID_162_" class="st3" d="M279.6,226.8c0,0,1.6,0.8,3,2"/>
		<path id="XMLID_161_" class="st12" d="M513.4,350.4c0,0-24.2-10.5-48.7-16.3c-24.5-5.7-64.1-10.9-64.1-10.9s10.9,111.3,8,118
			c-2.9,6.7-20.1,29.2-20.1,29.2s93.3,36.4,109.6,39.5c16.3,3.1,7.8-53.4,7.8-53.4S522.9,384.8,513.4,350.4z"/>
		<path id="XMLID_160_" class="st5" d="M479.9,338.4c0,0,2.2,4.2-3.6,6.4c-15.1,5.6-31.2,0.7-29.5-5.3c0.7-2.3,4.4,0,4.2-8.4
			c0-1.1-0.4-2.4-1-3.7c-0.9-2.1-2.4-4.4-3.8-6.4c-2.6-3.6-5.2-6.5-5.2-6.5s24-15.3,41.8,0C482.7,314.5,476.1,317.8,479.9,338.4z"/>
		<g id="XMLID_155_">
			<defs>
				<path id="XMLID_529_" d="M509.6,536.7c-9.4,15.4-57.4,22.6-83.5,21.9c-26.1-0.7-101.4-36.3-106.5-43.9
					c-4.7-7-16.3-30.1,1.6-44.1c1.4-1.1,3-2.1,4.8-3.1c12.3-6.6,93.8,14.3,93.8,14.3s5-3.2,6.9-3c5.7,0.7,9.7,5.3,21.3,8.6
					c8,2.3,30-6.5,44.1,1.1c1.5,0.8,3,1.8,4.3,3.1C509.4,504.2,519,521.3,509.6,536.7z"/>
			</defs>
			<use xlink:href="#XMLID_529_"  style="overflow:visible;fill:#A2C6EA;"/>
			<clipPath id="XMLID_9_">
				<use xlink:href="#XMLID_529_"  style="overflow:visible;"/>
			</clipPath>
			<path id="XMLID_157_" class="st13" d="M492,488.6c-14.4-1-27.2,2.1-36.2,7.3c-10.6,6.3-60.8,30.4-60.8,30.4
				c0.1-2.6,2.9-7.8,2.9-7.8c-4.7-4.2-17-7.5-17-7.5c-9.6-8.2-47.5-32.5-59.8-40.4c1.4-1.1,3-2.1,4.8-3.1
				c12.3-6.6,93.8,14.3,93.8,14.3s5-3.2,6.9-3c5.7,0.7,9.7,5.3,21.3,8.6C456,489.8,478,481,492,488.6z"/>
			
				<use xlink:href="#XMLID_529_"  style="overflow:visible;fill:none;stroke:#263238;stroke-linecap:round;stroke-linejoin:round;stroke-miterlimit:10;"/>
		</g>
		<g id="XMLID_128_">
			<path id="XMLID_154_" class="st5" d="M494.9,550.6l1.2,5.3c0,0-3.2,9.1-17.3,10.6c-14.1,1.5-22.5,4.6-29.2,5
				c-6.8,0.4-10.7-0.2-10.7-0.2l-1.4-2.1L494.9,550.6z"/>
			<g id="XMLID_149_">
				<defs>
					<path id="XMLID_528_" d="M413,550l24.4,19.2c0,0,18.9-1.5,35-5.2l0,0c11.6-2.7,21.7-6.5,22.2-11.8c0.8-8-7.7-10.2-17.9-9.9
						c-1.9,0-3.9,0.2-5.8,0.4c-16.3,1.7-37-7.2-37-7.2L413,550z"/>
				</defs>
				<use xlink:href="#XMLID_528_"  style="overflow:visible;fill:#263238;"/>
				<clipPath id="XMLID_10_">
					<use xlink:href="#XMLID_528_"  style="overflow:visible;"/>
				</clipPath>
				<path id="XMLID_151_" class="st14" d="M494.7,552c-4.4,1.7-9.8,4.1-13.6,6.7c0,0-22.7,11.7-57.6-0.4L413,550l21-14.6
					c0,0,20.7,9,37,7.2c2-0.2,3.9-0.4,5.8-0.4C486.9,541.9,495.4,544.1,494.7,552z"/>
				
					<use xlink:href="#XMLID_528_"  style="overflow:visible;fill:none;stroke:#263238;stroke-linecap:round;stroke-linejoin:round;stroke-miterlimit:10;"/>
			</g>
			<g id="XMLID_144_">
				<defs>
					<path id="XMLID_527_" d="M435.8,557.6c-4.4,0.7,0.4,9.7,6.4,7C448.2,561.8,440.2,556.9,435.8,557.6z"/>
				</defs>
				<use xlink:href="#XMLID_527_"  style="overflow:visible;fill:#FFFFFF;"/>
				<clipPath id="XMLID_35_">
					<use xlink:href="#XMLID_527_"  style="overflow:visible;"/>
				</clipPath>
				<path id="XMLID_146_" class="st15" d="M444.1,563.1c-3-0.4-6.2-0.9-9.5-1.7c-0.8-1.8-0.7-3.6,1.2-3.9
					C439.5,557,445.7,560.4,444.1,563.1z"/>
				
					<use xlink:href="#XMLID_527_"  style="overflow:visible;fill:none;stroke:#263238;stroke-linecap:round;stroke-linejoin:round;stroke-miterlimit:10;"/>
			</g>
			<g id="XMLID_139_">
				<defs>
					<path id="XMLID_526_" d="M472.5,563.9c11.6-2.7,21.7-6.5,22.2-11.8c0.8-8-7.7-10.2-17.9-9.9
						C476.4,542.7,466.5,552.2,472.5,563.9z"/>
				</defs>
				<use xlink:href="#XMLID_526_"  style="overflow:visible;fill:#FFFFFF;"/>
				<clipPath id="XMLID_36_">
					<use xlink:href="#XMLID_526_"  style="overflow:visible;"/>
				</clipPath>
				<path id="XMLID_141_" class="st16" d="M494.7,552c-4.4,1.7-9.8,4.1-13.6,6.7c0,0-3.4,1.7-9.6,3.2c-3.9-10.7,4.8-19.2,5.2-19.6
					C486.9,541.9,495.4,544.1,494.7,552z"/>
				
					<use xlink:href="#XMLID_526_"  style="overflow:visible;fill:none;stroke:#263238;stroke-linecap:round;stroke-linejoin:round;stroke-miterlimit:10;"/>
			</g>
			<g id="XMLID_137_">
				<path id="XMLID_138_" class="st5" d="M464.2,554C464.2,554,464.3,554,464.2,554c0.7,0,1.3-0.5,1.3-1.1c0.2-5,4.1-9.2,4.2-9.2
					c0.5-0.5,0.4-1.2,0-1.7c-0.5-0.5-1.2-0.4-1.7,0c-0.2,0.2-4.6,4.8-4.8,10.8C463.1,553.4,463.6,553.9,464.2,554z"/>
			</g>
			<g id="XMLID_135_">
				<path id="XMLID_136_" class="st5" d="M459.4,554.3c0,0,0.1,0,0.1,0c0.7,0,1.2-0.5,1.2-1.2c0.1-5.1,3.7-9.5,3.7-9.6
					c0.4-0.5,0.3-1.3-0.2-1.7c-0.5-0.4-1.3-0.3-1.7,0.2c-0.2,0.2-4.1,5.1-4.2,11C458.3,553.7,458.8,554.2,459.4,554.3z"/>
			</g>
			<g id="XMLID_133_">
				<path id="XMLID_134_" class="st5" d="M453.6,553.7C453.6,553.7,453.6,553.7,453.6,553.7c0.7,0.1,1.3-0.4,1.3-1.1
					c0.4-4.2,4-9.7,4-9.7c0.4-0.6,0.2-1.3-0.3-1.7c-0.6-0.4-1.3-0.2-1.7,0.3c-0.2,0.2-4,6-4.4,10.8
					C452.5,553,452.9,553.6,453.6,553.7z"/>
			</g>
			<g id="XMLID_131_">
				<path id="XMLID_132_" class="st5" d="M448.1,553.1c0.1,0,0.2,0,0.3,0c0.7-0.1,1.1-0.7,1-1.4c-0.9-5.1,3.9-9.5,4-9.6
					c0.5-0.4,0.5-1.2,0.1-1.7c-0.4-0.5-1.2-0.5-1.7-0.1c-0.2,0.2-5.8,5.3-4.7,11.8C447.2,552.6,447.6,553,448.1,553.1z"/>
			</g>
			<g id="XMLID_129_">
				<path id="XMLID_130_" class="st5" d="M442.2,551.7c0.1,0,0.3,0,0.4,0c0.7-0.1,1.1-0.8,0.9-1.4c-1.1-4.6,3.5-9.8,3.5-9.8
					c0.4-0.5,0.4-1.3-0.1-1.7c-0.5-0.4-1.3-0.4-1.7,0.1c-0.2,0.2-5.4,6.2-4.1,12C441.3,551.2,441.7,551.6,442.2,551.7z"/>
			</g>
		</g>
		<g id="XMLID_109_">
			<path id="XMLID_127_" class="st5" d="M316.5,542.7l-1.8,5.1c0,0,2.2,9.4,16.1,12.4c13.9,3,21.8,6.9,28.5,8.1
				c6.7,1.1,10.7,1,10.7,1l1.6-1.9L316.5,542.7z"/>
			<g id="XMLID_122_">
				<defs>
					<path id="XMLID_525_" d="M398,550.7l-26.3,16.5c0,0-18.7-3.5-34.3-8.9v0c-11.2-3.9-20.9-8.8-20.9-14.1c0-8.1,8.7-9.3,18.8-8
						c1.9,0.2,3.8,0.6,5.7,1c16,3.4,37.5-3.3,37.5-3.3L398,550.7z"/>
				</defs>
				<use xlink:href="#XMLID_525_"  style="overflow:visible;fill:#263238;"/>
				<clipPath id="XMLID_37_">
					<use xlink:href="#XMLID_525_"  style="overflow:visible;"/>
				</clipPath>
				<path id="XMLID_124_" class="st17" d="M398,550.7l-15.5,9.7c-15.5-4.7-25.6-14.6-31.4-22.1c13.7,0,27.5-4.3,27.5-4.3L398,550.7z
					"/>
				
					<use xlink:href="#XMLID_525_"  style="overflow:visible;fill:none;stroke:#263238;stroke-linecap:round;stroke-linejoin:round;stroke-miterlimit:10;"/>
			</g>
			<path id="XMLID_121_" class="st5" d="M337.4,558.4c-11.2-3.9-20.9-8.8-20.9-14.1c0-8.1,8.7-9.3,18.8-8
				C335.7,536.8,344.5,547.3,337.4,558.4z"/>
			<g id="XMLID_119_">
				<path id="XMLID_120_" class="st5" d="M346.6,549.3C346.6,549.3,346.6,549.3,346.6,549.3c-0.7,0-1.2-0.6-1.2-1.3
					c0.3-5-3.1-9.5-3.2-9.6c-0.4-0.5-0.3-1.3,0.2-1.7c0.5-0.4,1.3-0.3,1.7,0.2c0.2,0.2,4,5.2,3.7,11.2
					C347.8,548.8,347.3,549.3,346.6,549.3z"/>
			</g>
			<g id="XMLID_117_">
				<path id="XMLID_118_" class="st5" d="M351.4,550.1c0,0-0.1,0-0.1,0c-0.7-0.1-1.2-0.6-1.1-1.3c0.4-5.1-2.6-9.8-2.7-9.9
					c-0.4-0.6-0.2-1.3,0.3-1.7c0.6-0.4,1.3-0.2,1.7,0.3c0.1,0.2,3.6,5.5,3.1,11.4C352.6,549.7,352,550.1,351.4,550.1z"/>
			</g>
			<g id="XMLID_115_">
				<path id="XMLID_116_" class="st5" d="M357.2,550.1C357.2,550.1,357.2,550.1,357.2,550.1c-0.7,0-1.2-0.6-1.2-1.2
					c0.1-4.3-2.9-10-3-10.1c-0.3-0.6-0.1-1.3,0.5-1.6c0.6-0.3,1.3-0.1,1.6,0.5c0.1,0.3,3.3,6.4,3.3,11.3
					C358.4,549.6,357.9,550.1,357.2,550.1z"/>
			</g>
			<g id="XMLID_113_">
				<path id="XMLID_114_" class="st5" d="M362.7,550.1c-0.1,0-0.2,0-0.3,0c-0.6-0.2-1-0.8-0.8-1.5c1.4-5-2.9-9.9-2.9-9.9
					c-0.4-0.5-0.4-1.3,0.1-1.7c0.5-0.4,1.3-0.4,1.7,0.1c0.2,0.2,5.2,5.9,3.5,12.2C363.8,549.8,363.3,550.1,362.7,550.1z"/>
			</g>
			<g id="XMLID_111_">
				<path id="XMLID_112_" class="st5" d="M368.8,549.3c-0.1,0-0.3,0-0.4-0.1c-0.6-0.2-1-0.9-0.7-1.5c1.5-4.4-2.4-10.1-2.5-10.1
					c-0.4-0.5-0.3-1.3,0.3-1.7c0.5-0.4,1.3-0.3,1.7,0.3c0.2,0.3,4.7,6.7,2.8,12.3C369.8,549,369.3,549.3,368.8,549.3z"/>
			</g>
			<path id="XMLID_110_" class="st5" d="M374.5,555.9c4.3,1.2-1.5,9.6-7.1,6.3C361.8,558.8,370.2,554.7,374.5,555.9z"/>
		</g>
		<path id="XMLID_108_" class="st1" d="M324.8,511c6.5,9.1,25.6,19.1,44.7,27.3c2.1,3.4,6.2,9.7,12,15.6
			c11.7,12.1,16.5,5.3,16.5,5.3s7.4-0.8,18.4-2.3c0.7,1.4,2.4,3.6,5.5,3.1c1.4-0.2,4.2-2.3,7.3-5c27.7-4.2,65.2-11.1,75.3-19.3"/>
		<g id="XMLID_90_">
			<path id="XMLID_107_" class="st3" d="M493.7,493.8c-4.8-5.3-9.6-5.5-19.6-4.8c0,0-26.2,8.3-44.5,19.4c-18.3,11.1-45,22.7-45,22.7
				s-8.1-2.4-13.8,0c0,0-4,0.3-1.3,7.3"/>
			<path id="XMLID_106_" class="st3" d="M505.9,525.2c0,0,0.1,8.1-11.4,13.7"/>
			<path id="XMLID_105_" class="st3" d="M379.1,491.4c0,0,18.1,13.1,21.8,21.8c0,0,7,3,10.3,5.3"/>
			<path id="XMLID_104_" class="st3" d="M402.2,502.3c1.2,3.8,1.7,7.9,0.6,11.7"/>
			<path id="XMLID_103_" class="st3" d="M398,493.8c1,1.4,1.8,3,2.6,4.5"/>
			<path id="XMLID_93_" class="st3" d="M423.8,492.6c0,0,6.1,8.1,7.6,14.7"/>
			<path id="XMLID_92_" class="st3" d="M457.6,541.7c2.3-0.1,4.5-0.4,6.7-0.8"/>
			<path id="XMLID_91_" class="st3" d="M400.7,535.9c16.6,3.2,34.7,5.6,52.2,6"/>
		</g>
		<path id="XMLID_89_" class="st5" d="M523.4,412.8c0,0-3.3,57.1-7.1,60.5c-3.9,3.3-10,4.3-21.5,5.3c-11.5,1-62.6,4.1-62.6,4.1
			l-5.5-16.4c0,0,27.1-2.8,39.2-7.2c12-4.4,27.7-7.3,27.7-7.3s-2.3-14.4-2.3-20.6s0-21.9,0-29.1"/>
		<path id="XMLID_88_" class="st12" d="M513.4,350.4c12.4,7.7,16.1,25.4,11.8,63.1c0,0,3.7,4.5-1.8,6.7c0,0-20.3-7.6-29.8-2.4
			c-9.5,5.2-7-7.2-7-7.2s-3.9-34.8,4.7-41"/>
		<path id="XMLID_87_" class="st11" d="M490.3,364.2c0,0-12,12.4-1.4,43.9c0,0-1.5,5.7-1.4,7.8c0,2.1,2.9,3.2,2.9,3.2"/>
		<path id="XMLID_86_" class="st11" d="M476.3,385.3c0,0,0.9,15.3,10.4,22"/>
		<path id="XMLID_85_" class="st11" d="M479.4,349.7c0,0-18.5,7.1-33.3-0.8c-8.7-4.7-5.1-12.2-5.1-12.2"/>
		<g id="XMLID_46_">
			<path id="XMLID_84_" class="st18" d="M346,493.8h100.9c2.3,0,4.5-0.3,6.8-0.9l19.9-5.2c0.6-0.1,1-0.7,1-1.2l0,0
				c0-0.7-0.6-1.3-1.3-1.3H341.9c-0.7,0-1.3,0.6-1.3,1.3v1.9C340.6,491.4,343,493.8,346,493.8z"/>
			<path id="XMLID_67_" class="st19" d="M336,488.8h101.2c1.8,0,2.8-1.5,2.4-3.2l-18.8-73c-0.5-1.8-2.3-3.2-4-3.2H315.6
				c-1.8,0-2.8,1.5-2.4,3.2l18.8,73C332.5,487.4,334.3,488.8,336,488.8z"/>
			<line id="XMLID_56_" class="st3" x1="319.2" y1="411.9" x2="317.2" y2="411.9"/>
			<line id="XMLID_53_" class="st3" x1="334" y1="411.9" x2="324.1" y2="411.9"/>
			<path id="XMLID_49_" class="st3" d="M434.8,479.6l-16.6-64.4c-0.5-1.8-2.3-3.2-4-3.2h-78"/>
			<line id="XMLID_48_" class="st3" x1="436.2" y1="485.2" x2="435.8" y2="483.6"/>
			<path id="XMLID_47_" class="st5" d="M366.5,450.9c0.1,0.6,0.2,1.2,0.4,1.7c1.3,4.4,5.4,7.1,9.2,6c3.8-1.1,5.8-5.6,4.5-10
				c-1.3-4.4-5.4-7.1-9.2-5.9c-0.4,0.1-0.9,0.3-1.3,0.5C370.4,446.5,369,449.5,366.5,450.9z"/>
		</g>
		<path id="XMLID_45_" class="st12" d="M411.2,314.1c-8.8-1-13.5-9.3-18.8-10.6c-5.3-1.3-8.6-2.8-8.6-2.8s-1.8-6.3-4.5-4.1
			c-2.7,2.2-6.3,49.5-2.8,48c3.5-1.5,3.5,4.1,3.5,4.1l32.5,28.7l27.3-48.3C439.7,329.2,419.9,315.1,411.2,314.1z"/>
		<g id="XMLID_25_">
			<g id="XMLID_34_">
				<g id="XMLID_281_">
					<polyline id="XMLID_289_" class="st7" points="146.2,145.2 146.2,144.7 146.7,144.7 					"/>
					<line id="XMLID_288_" class="st20" x1="149.7" y1="144.7" x2="269.7" y2="144.7"/>
					<polyline id="XMLID_287_" class="st7" points="271.2,144.7 271.7,144.7 271.7,145.2 					"/>
					<line id="XMLID_286_" class="st21" x1="271.7" y1="148.2" x2="271.7" y2="226.4"/>
					<polyline id="XMLID_285_" class="st7" points="271.7,227.9 271.7,228.4 271.2,228.4 					"/>
					<line id="XMLID_284_" class="st20" x1="268.2" y1="228.4" x2="148.2" y2="228.4"/>
					<polyline id="XMLID_283_" class="st7" points="146.7,228.4 146.2,228.4 146.2,227.9 					"/>
					<line id="XMLID_282_" class="st21" x1="146.2" y1="224.9" x2="146.2" y2="146.7"/>
				</g>
			</g>
			<circle id="XMLID_33_" class="st4" cx="209" cy="144.7" r="2.1"/>
			<circle id="XMLID_32_" class="st4" cx="146.2" cy="186.6" r="2.1"/>
			<circle id="XMLID_31_" class="st4" cx="209" cy="228.4" r="2.1"/>
			<circle id="XMLID_30_" class="st4" cx="271.7" cy="186.6" r="2.1"/>
			<rect id="XMLID_29_" x="269.3" y="226" class="st4" width="4.8" height="4.8"/>
			<rect id="XMLID_28_" x="269.3" y="142.3" class="st4" width="4.8" height="4.8"/>
			<rect id="XMLID_27_" x="143.8" y="226" class="st4" width="4.8" height="4.8"/>
			<rect id="XMLID_26_" x="143.8" y="142.3" class="st4" width="4.8" height="4.8"/>
		</g>
		<g id="XMLID_21_">
			<rect id="XMLID_24_" x="154.5" y="152.1" class="st5" width="109.3" height="69.4"/>
			<polygon id="XMLID_23_" class="st4" points="263.8,201.1 251.6,213.2 218.8,180.3 204.9,194.2 182.9,172.1 154.5,200.5 
				154.5,221.6 263.8,221.6 			"/>
			<circle id="XMLID_22_" class="st4" cx="241.1" cy="171.8" r="7.7"/>
		</g>
		<path id="XMLID_20_" class="st11" d="M416.9,326.9c0,0-8.3,15.6-9.4,39.4"/>
		<path id="XMLID_19_" class="st11" d="M392.4,337.7c0,0,2.5,13.2,9.8,22.9"/>
		<path id="XMLID_18_" class="st11" d="M426.8,392.4c0,0,12.5,41.2,39.8,53.4"/>
		<path id="XMLID_17_" class="st12" d="M459.8,317.7c0,0-1.2,9-9.8,9.6c-0.9-2.1-2.4-4.4-3.8-6.4
			C451.8,319.1,459.8,317.7,459.8,317.7z"/>
		<g id="XMLID_5_">
			<path id="XMLID_16_" class="st5" d="M478.2,318.4c0,0,14.5,1.8,20.5-17.6c6.1-19.4,1.3-34.1-22.6-41.1
				c-13.3-3.9-26.6-0.8-31.3,9.3c-4.1,8.6-2.2,15.8-3.1,18.7c-1.1,3.2-10.8,6-10.8,8.2c0,1.8,5.4,5,5.4,5l-1.6,4.8l1.5,0.8
				c0,0-2.8,10.9-1.5,14.7c0.9,2.8,25.4,4,27.3-3"/>
			<path id="XMLID_15_" class="st3" d="M444.9,276c0,0,4.8,1.2,6.1,3.7"/>
			
				<ellipse id="XMLID_14_" transform="matrix(-0.9894 -0.145 0.145 -0.9894 847.2363 636.067)" class="st12" cx="446.8" cy="287.2" rx="1.1" ry="2.6"/>
			<path id="XMLID_13_" class="st3" d="M436.1,306.4c0,0,7.8,3,10.7,1.2"/>
			
				<ellipse id="XMLID_12_" transform="matrix(-0.9832 -0.1826 0.1826 -0.9832 823.2028 648.5366)" class="st3" cx="441.5" cy="286.4" rx="2.7" ry="5.7"/>
			<path id="XMLID_11_" class="st12" d="M499.4,270c0,0-1.1-8.1-9.1-14c-8-5.9-17.5-7.2-17.5-7.2s4.6,2,6.4,4.7c0,0-12-9-26.2-3.1
				c-14.2,5.9-12.4,21.2-12.4,21.2l2.1-4c0,0-0.2,4.8,2.3,6.5c0,0,1.5-4.6,3-6.7c0,0,3.8,11.3,14.1,15.1c0,0-1.1-2.2-0.2-5.6
				c0,0,5.7,12.4,4.1,18.5l1.8,3.2c0,0,6.6-6.7,12-1.1c3.1,3.2-5.9,15.3-7.2,15.3l5.4,8c0,0,13.6,1.9,21.4-12.7
				c7.8-14.7,5.9-21,5.9-21s2.6,3.6,2.9,5.6C508.1,292.8,510.4,277,499.4,270z"/>
			<path id="XMLID_7_" class="st5" d="M467.5,300.1c0,0,4.2-14.1,13.1-9.1c8.9,5,2.5,12.5-0.6,15.3c-3.2,2.9-5.6,8.1-7.7,8.1
				c-2.1,0-2.6-2.6-2.6-2.6"/>
			<line id="XMLID_6_" class="st3" x1="444.1" y1="286.9" x2="468.9" y2="292"/>
		</g>
	</g>
</g>
</svg>
