<?xml version="1.0" encoding="utf-8"?>
<!-- Generator: Adobe Illustrator 19.0.0, SVG Export Plug-In . SVG Version: 6.00 Build 0)  -->
<svg version="1.1" xmlns="http://www.w3.org/2000/svg" xmlns:xlink="http://www.w3.org/1999/xlink" x="0px" y="0px"
	 viewBox="0 0 500 500" style="enable-background:new 0 0 500 500;" xml:space="preserve">
<style type="text/css">
	.st0{fill:#92E3A9;}
	.st1{fill:#A2C6EA;enable-background:new    ;}
	.st2{fill:none;stroke:#263238;stroke-linecap:round;stroke-linejoin:round;stroke-miterlimit:10;}
	.st3{fill:#A2C6EA;stroke:#263238;stroke-linecap:round;stroke-linejoin:round;stroke-miterlimit:10;}
	.st4{fill:none;stroke:#263238;stroke-width:0.5;stroke-linecap:round;stroke-linejoin:round;stroke-miterlimit:10;}
	.st5{fill:#FFFFFF;stroke:#263238;stroke-linecap:round;stroke-linejoin:round;stroke-miterlimit:10;}
	.st6{fill:none;stroke:#263238;stroke-width:2;stroke-miterlimit:10;}
	.st7{fill:#407BFF;stroke:#263238;stroke-miterlimit:10;}
	.st8{fill:none;stroke:#263238;stroke-width:0.5;stroke-miterlimit:10;}
	.st9{fill:#263238;stroke:#263238;stroke-miterlimit:10;}
	.st10{fill:#7D7D7D;stroke:#263238;stroke-linecap:round;stroke-linejoin:round;stroke-miterlimit:10;}
	.st11{fill:#263238;}
	.st12{fill:#595959;stroke:#263238;stroke-linecap:round;stroke-linejoin:round;stroke-miterlimit:10;}
	.st13{fill:#A8A8A8;stroke:#263238;stroke-linecap:round;stroke-linejoin:round;stroke-miterlimit:10;}
	.st14{fill:#263238;stroke:#263238;stroke-linecap:round;stroke-linejoin:round;stroke-miterlimit:10;}
	.st15{fill:#407BFF;stroke:#263238;stroke-linecap:round;stroke-linejoin:round;stroke-miterlimit:10;}
	.st16{fill:#9C9C9C;stroke:#263238;stroke-linecap:round;stroke-linejoin:round;stroke-miterlimit:10;}
</style>
<g id="Background_Simple">
	<g>
		<path class="st0" d="M461,208.2c0,0-64-156.1-181-186.3s-166.1,62-184,126c-17.9,63.9-84,148.6-78,206.7
			c5.7,55.3,54.1,81.4,99.4,92.6c57.5,14.3,122.8,15.3,180.5,3.5c13.7-2.8,27.2-6.6,40.6-11c27.1-8.8,53.7-15.7,81.2-23
			c52.2-13.9,72.9-70,67-123.7C483.4,262.7,472.3,235.7,461,208.2z"/>
		<path class="st1" d="M461,208.2c0,0-64-156.1-181-186.3s-166.1,62-184,126c-17.9,63.9-84,148.6-78,206.7
			c5.7,55.3,54.1,81.4,99.4,92.6c57.5,14.3,122.8,15.3,180.5,3.5c13.7-2.8,27.2-6.6,40.6-11c27.1-8.8,53.7-15.7,81.2-23
			c52.2-13.9,72.9-70,67-123.7C483.4,262.7,472.3,235.7,461,208.2z"/>
	</g>
</g>
<g id="Window">
	<g>
		<rect x="240.3" y="37.2" class="st2" width="185.5" height="256.8"/>
		<line class="st2" x1="333" y1="37.4" x2="333" y2="294.9"/>
		<line class="st2" x1="425.9" y1="166.2" x2="240.1" y2="166.2"/>
		<line class="st2" x1="425.9" y1="101.7" x2="240.1" y2="101.7"/>
		<line class="st2" x1="425.9" y1="230.7" x2="240.1" y2="230.7"/>
		<g>
			<line class="st2" x1="392.1" y1="131.4" x2="374" y2="148.8"/>
			<line class="st2" x1="419" y1="105.6" x2="397.4" y2="126.3"/>
			<line class="st2" x1="372.7" y1="140.5" x2="367" y2="146"/>
			<line class="st2" x1="397.4" y1="116.8" x2="376.7" y2="136.7"/>
		</g>
		<g>
			<line class="st2" x1="291.8" y1="72.6" x2="273.7" y2="90"/>
			<line class="st2" x1="318.7" y1="46.8" x2="297.1" y2="67.5"/>
			<line class="st2" x1="272.4" y1="81.7" x2="266.6" y2="87.2"/>
			<line class="st2" x1="297" y1="58" x2="276.3" y2="77.9"/>
		</g>
		<g>
			<line class="st2" x1="387.8" y1="199.8" x2="369.7" y2="217.1"/>
			<line class="st2" x1="414.7" y1="173.9" x2="393.1" y2="194.7"/>
			<line class="st2" x1="368.4" y1="208.9" x2="362.6" y2="214.4"/>
			<line class="st2" x1="393" y1="185.1" x2="372.3" y2="205"/>
		</g>
	</g>
</g>
<g id="Plants_2">
	<g>
		<g>
			<path class="st3" d="M395.9,269.8l-0.8-6.7c0,0-3.6,0.2-4.9-2.9c-0.8-1.9-1.7-5.7-0.4-7.5c1.7-2.5,5.3-2.2,6.4,0.9
				c0.9,2.7,1.4,3.9,1.4,3.9c-0.2-3.9-3.2-19.8,5.7-17.4c3.6,1,4.6,4.5,4.8,7.2c0.2,2.8-0.2,9.9-0.2,9.9s2.4,0.3,2.6-3.7
				c0.2-4,4-5.8,5.7-3.9c1.7,1.9,2.5,8.6,0.6,10.7c-1.9,2.1-7.8,2.8-7.8,2.8l0.4,6.7L395.9,269.8z"/>
			<path class="st4" d="M401.1,241.2c0,0-1.5,1.3-1.1,5.9c0.4,4.6,0.4,12.7,0.4,12.7"/>
			<path class="st4" d="M404.9,244.3c0,0,1.7-0.3,1.2,3.9c-0.5,4.2,0,10.4,0,10.4"/>
			<path class="st4" d="M392.3,253.2c0,0-1.7,0.4-0.9,3.2c0.8,2.8,1.1,5,2.9,5.4c1.9,0.4,2.5,0.4,2.5,0.4l0.3,2.9"/>
			<path class="st4" d="M409.2,261.6c0,0,5.5,0.1,6.6-2.1c1.1-2.3,0.4-6.2,0.4-6.2"/>
			<circle class="st4" cx="394.2" cy="253.9" r="0.5"/>
			<circle class="st4" cx="395.8" cy="259.3" r="0.5"/>
			<circle class="st4" cx="393.4" cy="257.1" r="0.5"/>
			<circle class="st4" cx="402.9" cy="251.5" r="0.5"/>
			<circle class="st4" cx="398.5" cy="247" r="0.5"/>
			<circle class="st4" cx="404.5" cy="263.3" r="0.5"/>
			<circle class="st4" cx="399.4" cy="262.7" r="0.5"/>
			<circle class="st4" cx="403.7" cy="242.7" r="0.5"/>
			<circle class="st4" cx="413.2" cy="251.6" r="0.5"/>
			<circle class="st4" cx="412" cy="258" r="0.5"/>
			<circle class="st4" cx="403.7" cy="257.8" r="0.5"/>
		</g>
		<polygon class="st5" points="414.4,265.5 390.3,265.5 392.7,285.3 412,285.3 		"/>
	</g>
</g>
<g id="Plants_1">
	<g>
		<g>
			<line class="st6" x1="55.7" y1="229.1" x2="74.1" y2="405.8"/>
			<g>
				<g>
					<line class="st6" x1="71.1" y1="372" x2="62.8" y2="363.2"/>
					<path class="st7" d="M65.3,365.8c0,0,0.2-3.9-3.3-7.1c-2.1-1.9-13.4-6.7-14.5-2.7C46.3,360.4,57.9,368.9,65.3,365.8z"/>
					<line class="st8" x1="65.3" y1="365.8" x2="54.5" y2="359.1"/>
				</g>
				<g>
					<line class="st6" x1="73.2" y1="392.1" x2="64.9" y2="383.3"/>
					<path class="st7" d="M67.4,385.9c0,0,0.2-3.9-3.3-7.1c-2.1-1.9-13.4-6.7-14.5-2.7C48.4,380.5,60,389,67.4,385.9z"/>
					<line class="st8" x1="67.4" y1="385.9" x2="56.6" y2="379.2"/>
				</g>
				<g>
					<line class="st6" x1="66" y1="323" x2="57.6" y2="314.1"/>
					<path class="st7" d="M60.2,316.8c0,0,0.2-3.9-3.3-7.1c-2.1-1.9-13.4-6.7-14.5-2.7C41.2,311.3,52.7,319.8,60.2,316.8z"/>
					<line class="st8" x1="60.2" y1="316.8" x2="49.4" y2="310.1"/>
				</g>
				<g>
					<line class="st6" x1="68.1" y1="343.1" x2="59.7" y2="334.2"/>
					<path class="st7" d="M62.3,336.9c0,0,0.2-3.9-3.3-7.1c-2.1-1.9-13.4-6.7-14.5-2.7C43.3,331.4,54.8,339.9,62.3,336.9z"/>
					<line class="st8" x1="62.3" y1="336.9" x2="51.5" y2="330.2"/>
				</g>
				<g>
					<line class="st6" x1="62.6" y1="290.3" x2="54.2" y2="281.5"/>
					<path class="st7" d="M56.8,284.1c0,0,0.2-3.9-3.3-7.1c-2.1-1.9-13.4-6.7-14.5-2.7C37.8,278.7,49.3,287.2,56.8,284.1z"/>
					<line class="st8" x1="56.8" y1="284.1" x2="46" y2="277.4"/>
				</g>
				<g>
					<line class="st6" x1="59.2" y1="257.5" x2="50.8" y2="248.7"/>
					<path class="st7" d="M53.4,251.3c0,0,0.2-3.9-3.3-7.1c-2.1-1.9-13.4-6.7-14.5-2.7C34.3,245.9,45.9,254.4,53.4,251.3z"/>
					<line class="st8" x1="53.4" y1="251.3" x2="42.6" y2="244.6"/>
				</g>
				<g>
					<line class="st6" x1="69.7" y1="360.1" x2="76.1" y2="349.7"/>
					<path class="st7" d="M74.1,352.9c0,0-1-3.8,1.8-7.6c1.7-2.3,11.8-9.3,13.6-5.6C91.6,343.6,82,354.3,74.1,352.9z"/>
					<line class="st8" x1="74.1" y1="352.9" x2="83.8" y2="343.6"/>
				</g>
				<g>
					<line class="st6" x1="64.2" y1="307.2" x2="70.6" y2="296.8"/>
					<path class="st7" d="M68.6,300c0,0-1-3.8,1.8-7.6c1.7-2.3,11.8-9.3,13.6-5.6C86.1,290.7,76.5,301.4,68.6,300z"/>
					<line class="st8" x1="68.6" y1="300" x2="78.3" y2="290.7"/>
				</g>
				<g>
					<line class="st6" x1="61.8" y1="284" x2="68.1" y2="273.6"/>
					<path class="st7" d="M66.2,276.7c0,0-1-3.8,1.8-7.6c1.7-2.3,11.8-9.3,13.6-5.6C83.7,267.5,74.1,278.2,66.2,276.7z"/>
					<line class="st8" x1="66.2" y1="276.7" x2="75.9" y2="267.5"/>
				</g>
				<g>
					<line class="st6" x1="58.2" y1="249.9" x2="64.6" y2="239.5"/>
					<path class="st7" d="M62.6,242.6c0,0-1-3.8,1.8-7.6c1.7-2.3,11.8-9.3,13.6-5.6C80.1,233.4,70.5,244.1,62.6,242.6z"/>
					<line class="st8" x1="62.6" y1="242.6" x2="72.3" y2="233.4"/>
					<path class="st7" d="M55.5,228.1c0,0-1-3.8,1.8-7.6c1.7-2.3,11.8-9.3,13.6-5.6C73,218.8,63.4,229.5,55.5,228.1z"/>
					<line class="st8" x1="55.5" y1="228.1" x2="65.2" y2="218.9"/>
					<path class="st7" d="M56.1,228.5c0,0-3.9,0.6-7.4-2.6c-2.1-1.9-8-12.7-4.2-14.2C48.7,210.2,58.3,220.8,56.1,228.5z"/>
					<line class="st8" x1="56.1" y1="228.5" x2="47.9" y2="217.9"/>
				</g>
			</g>
		</g>
		<g>
			<line class="st6" x1="104.3" y1="253.4" x2="86" y2="430.2"/>
			<g>
				<g>
					<line class="st6" x1="90" y1="396.5" x2="83.6" y2="386.1"/>
					<path class="st7" d="M85.6,389.2c0,0,1-3.8-1.8-7.6c-1.7-2.3-11.8-9.3-13.6-5.6C68.1,380,77.7,390.7,85.6,389.2z"/>
					<line class="st8" x1="85.6" y1="389.2" x2="76.4" y2="380.4"/>
				</g>
				<g>
					<line class="st6" x1="95.1" y1="347.4" x2="88.7" y2="337"/>
					<path class="st7" d="M90.7,340.2c0,0,1-3.8-1.8-7.6c-1.7-2.3-11.8-9.3-13.6-5.6C73.2,330.9,82.8,341.6,90.7,340.2z"/>
					<line class="st8" x1="90.7" y1="340.2" x2="81.5" y2="331.4"/>
				</g>
				<g>
					<line class="st6" x1="93" y1="367.5" x2="86.7" y2="357.1"/>
					<path class="st7" d="M88.6,360.3c0,0,1-3.8-1.8-7.6c-1.7-2.3-11.8-9.3-13.6-5.6C71.1,351,80.7,361.7,88.6,360.3z"/>
					<line class="st8" x1="88.6" y1="360.3" x2="79.5" y2="351.5"/>
				</g>
				<g>
					<line class="st6" x1="98.5" y1="314.8" x2="92.1" y2="304.4"/>
					<path class="st7" d="M94.1,307.5c0,0,1-3.8-1.8-7.6c-1.7-2.3-11.8-9.3-13.6-5.6C76.6,298.3,86.2,309,94.1,307.5z"/>
					<line class="st8" x1="94.1" y1="307.5" x2="84.9" y2="298.7"/>
				</g>
				<g>
					<line class="st6" x1="101.9" y1="282" x2="95.5" y2="271.6"/>
					<path class="st7" d="M97.5,274.7c0,0,1-3.8-1.8-7.6c-1.7-2.3-11.8-9.3-13.6-5.6C80,265.5,89.6,276.2,97.5,274.7z"/>
					<line class="st8" x1="97.5" y1="274.7" x2="88.3" y2="265.9"/>
				</g>
				<g>
					<line class="st6" x1="91.1" y1="384.5" x2="99.4" y2="375.7"/>
					<path class="st7" d="M96.9,378.3c0,0-0.2-3.9,3.3-7.1c2.1-1.9,13.4-6.7,14.5-2.7C115.9,372.9,104.4,381.4,96.9,378.3z"/>
					<line class="st8" x1="96.9" y1="378.3" x2="108.3" y2="371.3"/>
				</g>
				<g>
					<line class="st6" x1="96.6" y1="331.6" x2="104.9" y2="322.8"/>
					<path class="st7" d="M102.4,325.4c0,0-0.2-3.9,3.3-7.1c2.1-1.9,13.4-6.7,14.5-2.7C121.4,320,109.8,328.5,102.4,325.4z"/>
					<line class="st8" x1="102.4" y1="325.4" x2="113.8" y2="318.4"/>
				</g>
				<g>
					<line class="st6" x1="99" y1="308.4" x2="107.3" y2="299.6"/>
					<path class="st7" d="M104.8,302.2c0,0-0.2-3.9,3.3-7.1c2.1-1.9,13.4-6.7,14.5-2.7C123.8,296.7,112.3,305.2,104.8,302.2z"/>
					<line class="st8" x1="104.8" y1="302.2" x2="116.2" y2="295.1"/>
				</g>
				<g>
					<line class="st6" x1="102.5" y1="274.3" x2="110.9" y2="265.5"/>
					<path class="st7" d="M108.3,268.1c0,0-0.2-3.9,3.3-7.1c2.1-1.9,13.4-6.7,14.5-2.7C127.3,262.7,115.8,271.2,108.3,268.1z"/>
					<line class="st8" x1="108.3" y1="268.1" x2="119.7" y2="261.1"/>
					<path class="st7" d="M104.3,252.4c0,0-0.2-3.9,3.3-7.1c2.1-1.9,13.4-6.7,14.5-2.7C123.4,247,111.8,255.5,104.3,252.4z"/>
					<line class="st8" x1="104.3" y1="252.4" x2="115.7" y2="245.4"/>
					<path class="st7" d="M104.8,252.9c0,0-3.9-0.2-6.7-4c-1.7-2.3-5.2-14.1-1.2-14.7C101.4,233.5,108.6,245.9,104.8,252.9z"/>
					<line class="st8" x1="104.8" y1="252.9" x2="99" y2="240.9"/>
				</g>
			</g>
		</g>
		<line class="st6" x1="83.3" y1="181.5" x2="83.3" y2="405"/>
		<g>
			<g>
				<line class="st6" x1="83.5" y1="371.4" x2="76.1" y2="361.7"/>
				<path class="st7" d="M78.3,364.6c0,0,0.6-3.9-2.6-7.4c-1.9-2.1-12.7-8-14.2-4.2C60,357.2,70.6,366.9,78.3,364.6z"/>
				<line class="st8" x1="78.3" y1="364.6" x2="68.3" y2="356.8"/>
			</g>
			<g>
				<line class="st6" x1="83.5" y1="329.4" x2="76.1" y2="319.7"/>
				<path class="st7" d="M78.3,322.6c0,0,0.6-3.9-2.6-7.4c-1.9-2.1-12.7-8-14.2-4.2C60,315.2,70.6,324.8,78.3,322.6z"/>
				<line class="st8" x1="78.3" y1="322.6" x2="68.3" y2="314.8"/>
			</g>
			<g>
				<line class="st6" x1="83.5" y1="280" x2="76.1" y2="270.4"/>
				<path class="st7" d="M78.3,273.3c0,0,0.6-3.9-2.6-7.4c-1.9-2.1-12.7-8-14.2-4.2C60,265.9,70.6,275.5,78.3,273.3z"/>
				<line class="st8" x1="78.3" y1="273.3" x2="68.3" y2="265.5"/>
			</g>
			<g>
				<line class="st6" x1="83.5" y1="247.2" x2="76.1" y2="237.6"/>
				<path class="st7" d="M78.3,240.5c0,0,0.6-3.9-2.6-7.4c-1.9-2.1-12.7-8-14.2-4.2C60,233.1,70.6,242.7,78.3,240.5z"/>
				<line class="st8" x1="78.3" y1="240.5" x2="68.3" y2="232.7"/>
			</g>
			<g>
				<line class="st6" x1="83.5" y1="214.2" x2="76.1" y2="204.6"/>
				<path class="st7" d="M78.3,207.5c0,0,0.6-3.9-2.6-7.4c-1.9-2.1-12.7-8-14.2-4.2C60,200.1,70.6,209.7,78.3,207.5z"/>
				<line class="st8" x1="78.3" y1="207.5" x2="68.3" y2="199.7"/>
			</g>
			<g>
				<line class="st6" x1="83.3" y1="384.2" x2="90.7" y2="374.5"/>
				<path class="st7" d="M88.4,377.4c0,0-0.6-3.9,2.6-7.4c1.9-2.1,12.7-8,14.2-4.2C106.8,370,96.2,379.7,88.4,377.4z"/>
				<line class="st8" x1="88.4" y1="377.4" x2="99" y2="369.2"/>
			</g>
			<g>
				<line class="st6" x1="83.3" y1="317.4" x2="90.7" y2="307.7"/>
				<path class="st7" d="M88.4,310.6c0,0-0.6-3.9,2.6-7.4c1.9-2.1,12.7-8,14.2-4.2C106.8,303.2,96.2,312.9,88.4,310.6z"/>
				<line class="st8" x1="88.4" y1="310.6" x2="99" y2="302.4"/>
			</g>
			<g>
				<line class="st6" x1="83.3" y1="284.4" x2="90.7" y2="274.8"/>
				<path class="st7" d="M88.4,277.7c0,0-0.6-3.9,2.6-7.4c1.9-2.1,12.7-8,14.2-4.2C106.8,270.3,96.2,279.9,88.4,277.7z"/>
				<line class="st8" x1="88.4" y1="277.7" x2="99" y2="269.5"/>
			</g>
			<g>
				<line class="st6" x1="83.3" y1="240.8" x2="90.7" y2="231.2"/>
				<path class="st7" d="M88.4,234.1c0,0-0.6-3.9,2.6-7.4c1.9-2.1,12.7-8,14.2-4.2C106.8,226.7,96.2,236.3,88.4,234.1z"/>
				<line class="st8" x1="88.4" y1="234.1" x2="99" y2="225.9"/>
			</g>
			<g>
				<line class="st6" x1="83.3" y1="206.6" x2="90.7" y2="196.9"/>
				<path class="st7" d="M88.4,199.8c0,0-0.6-3.9,2.6-7.4c1.9-2.1,12.7-8,14.2-4.2C106.8,192.4,96.2,202.1,88.4,199.8z"/>
				<line class="st8" x1="88.4" y1="199.8" x2="99" y2="191.6"/>
				<path class="st7" d="M82.9,184.6c0,0-0.6-3.9,2.6-7.4c1.9-2.1,12.7-8,14.2-4.2C101.2,177.2,90.6,186.9,82.9,184.6z"/>
				<line class="st8" x1="82.9" y1="184.6" x2="93.4" y2="176.4"/>
				<path class="st7" d="M83.4,185.1c0,0-3.9,0.2-7.1-3.3c-1.9-2.1-6.7-13.4-2.7-14.5C77.9,166.1,86.4,177.6,83.4,185.1z"/>
				<line class="st8" x1="83.4" y1="185.1" x2="76.3" y2="173.7"/>
			</g>
		</g>
		<polygon class="st9" points="92.5,462.9 68.8,462.9 65.8,403.1 95.4,403.1 		"/>
	</g>
</g>
<g id="Device">
	<g>
		<polygon class="st10" points="306.3,220 379.3,220 362.3,282.6 289.3,282.6 		"/>
		<polygon class="st5" points="308.4,222.3 376,222.3 360.2,280.3 292.7,280.3 		"/>
		<g>
			<g>
				<path class="st11" d="M324.8,262.2l4.1-15.2h1.7l-3.6,13.6h4.3l-0.4,1.5H324.8z"/>
				<path class="st11" d="M335,250.7c0.6-2.3,2.2-3.8,4.5-3.8c2.3,0,3.1,1.5,2.5,3.8l-2.1,7.8c-0.6,2.3-2.2,3.8-4.5,3.8
					c-2.3,0-3.1-1.5-2.4-3.8L335,250.7z M334.6,258.6c-0.4,1.4,0,2.2,1.2,2.2c1.2,0,2-0.8,2.4-2.2l2.1-8c0.4-1.4,0-2.2-1.2-2.2
					c-1.2,0-2,0.8-2.4,2.2L334.6,258.6z"/>
				<path class="st11" d="M350.3,250.7L350,252h-1.6l0.4-1.4c0.4-1.4,0-2.2-1.2-2.2c-1.2,0-2,0.8-2.4,2.2l-2.1,8
					c-0.4,1.4,0,2.2,1.2,2.2c1.2,0,2-0.8,2.4-2.2l0.8-3h-1.6l0.4-1.5h3.2l-1.2,4.5c-0.6,2.3-2.1,3.8-4.4,3.8c-2.3,0-3-1.5-2.4-3.8
					l2.1-7.8c0.6-2.3,2.1-3.8,4.4-3.8C350.2,246.9,350.9,248.4,350.3,250.7z"/>
				<path class="st11" d="M351.8,250.7c0.6-2.3,2.2-3.8,4.5-3.8c2.3,0,3.1,1.5,2.5,3.8l-2.1,7.8c-0.6,2.3-2.2,3.8-4.5,3.8
					c-2.3,0-3.1-1.5-2.4-3.8L351.8,250.7z M351.3,258.6c-0.4,1.4,0,2.2,1.2,2.2c1.2,0,2-0.8,2.4-2.2l2.1-8c0.4-1.4,0-2.2-1.2-2.2
					c-1.2,0-2,0.8-2.4,2.2L351.3,258.6z"/>
			</g>
			<path class="st2" d="M326.6,247.9c-0.1-3.4-0.9-9.8-4.7-14.7c-5.4-7.1-15.3,2.6-11.2,14.6c0.6,1.7,1.4,3.1,2.4,4.3"/>
			<path class="st2" d="M317,255.9c0,0-14.4,2.2-11.4,7.5c5.3,9.2,14,0.8,17.7-3.5"/>
			
				<ellipse transform="matrix(0.9372 -0.3488 0.3488 0.9372 -65.2493 126.9525)" class="st3" cx="319.9" cy="244.7" rx="3.9" ry="8.4"/>
			
				<ellipse transform="matrix(-0.935 0.3546 -0.3546 -0.935 700.1974 395.3096)" class="st3" cx="313.9" cy="261.8" rx="5.1" ry="2.6"/>
			<path class="st2" d="M331,235.6c0,0,2.9,7.4-2.3,13.9c0,0,0.9-4.8-1.2-11"/>
		</g>
		<rect x="260" y="279.3" class="st10" width="102.3" height="3.3"/>
		<rect x="315.3" y="279.3" class="st12" width="47" height="3.3"/>
	</g>
</g>
<g id="Table">
	<g>
		<g>
			<rect x="227.3" y="287.9" class="st5" width="5.5" height="174.6"/>
			<rect x="222.6" y="287.9" class="st13" width="4.7" height="174.6"/>
		</g>
		<g>
			<rect x="368.2" y="379.3" class="st5" width="5.5" height="83.2"/>
			<rect x="363.5" y="379.3" class="st13" width="4.7" height="83.2"/>
		</g>
		<g>
			<g>
				<rect x="427.1" y="379.3" class="st5" width="5.5" height="83.2"/>
				<rect x="422.4" y="379.3" class="st13" width="4.7" height="83.2"/>
			</g>
			<g>
				<rect x="313.7" y="289.6" class="st13" width="53.7" height="94.4"/>
				<rect x="367.3" y="289.6" class="st5" width="70.7" height="94.4"/>
				<polygon class="st14" points="367.3,289.6 313.7,289.6 313.7,294.2 367.3,294.2 438,294.2 438,289.6 				"/>
				<g>
					<rect x="318.2" y="295" class="st5" width="45.8" height="22"/>
					<rect x="335.1" y="304" class="st11" width="12.1" height="4.2"/>
				</g>
				<g>
					<rect x="318.2" y="325.4" class="st5" width="45.8" height="22"/>
					<rect x="335.1" y="333.9" class="st11" width="12.1" height="4.2"/>
				</g>
				<g>
					<rect x="318.2" y="355.8" class="st5" width="45.8" height="22"/>
					<rect x="335.1" y="363.9" class="st11" width="12.1" height="4.2"/>
				</g>
			</g>
			<g>
				<rect x="215" y="285.5" class="st13" width="230.3" height="5.5"/>
				<rect x="375.8" y="285.5" class="st5" width="69.5" height="5.5"/>
			</g>
		</g>
	</g>
</g>
<g id="Character">
	<g>
		<g>
			<path class="st5" d="M234.5,341.4c0,0,6.9,4.8,17,34.1c3.4,9.8,22.4,62.4,23.4,66.1c1,3.7,3,8,6,8s14-14,12.7-15.7
				c-1.3-1.7-7.7-8.3-7.7-8.3s-3.8-42.6-4.4-54.6c-0.7-12,2.1-26.5-4.3-36.1c-6.3-9.7-34.3,0.3-34.3,0.3L234.5,341.4z"/>
			<g>
				<path class="st15" d="M289,425.5c0,0-2.7,1.3-2.3,4.3c0.3,3,3.3,7,3.3,7s-6.3,5-9.7,5.3c-3.3,0.3-7,1-7,2s2.7,2.7,4.3,6.3
					c1.7,3.7,5.3,9.3,6.3,10.7c1,1.3,1.7,2.3,5.3,1.3c3.7-1,11.7-8.3,16-11.3c4.3-3,17.3-5,19.7-6.7c2.3-1.7,9.7-12.3,6.3-14.3
					c-3.3-2-4.3,0.3-8.3,1.3s-15.7-0.3-22-1.7c-6.3-1.3-8.3-1.7-8.3-1.7L289,425.5z"/>
				<path class="st5" d="M283.4,460.4c0.2,0.3,0.4,0.6,0.5,0.8c1,1.3,1.7,2.3,5.3,1.3c3.7-1,11.7-8.3,16-11.3c4.3-3,17.3-5,19.7-6.7
					c2.3-1.7,9.7-12.3,6.3-14.3c-0.6-0.3-1.1-0.5-1.5-0.7c0.1,0.2,0.1,0.4,0.2,0.7c1,4-2.3,8-5.3,11s-13,2.3-24,8
					C292.9,453.1,286.6,457.9,283.4,460.4z"/>
			</g>
			<path class="st14" d="M283.1,392.2c-0.7-8.8-1.4-17-1.6-21.2c-0.7-12,2.1-26.5-4.3-36.1c-6.3-9.7-34.3,0.3-34.3,0.3l-8.4,6.2
				c0,0,6.9,4.8,17,34.1c1.3,3.7,4.9,13.7,8.9,24.9L283.1,392.2z"/>
		</g>
		<g>
			<g>
				<path class="st5" d="M266.8,170.4c0,0,1.5,3.9,1.2,7.3c-0.3,3.3-3.3,4.8-3.6,3.9c-0.3-0.9-0.3-3.3-0.3-4.5c0-1.2,0-1.2,0-1.2
					s-0.6,1.2-2.7,3.3s-3.3,1.5-4.2,1.5s-1.2-3,0.3-5.1C258.9,173.4,263.8,168.6,266.8,170.4z"/>
				<path class="st5" d="M273.7,178.2c-3-1.8-7.6,4.5-14.5,3c-0.9-0.2-1.2-1.5,0.3-4.5c1.5-3,6.4-5.4,8.8-7.3
					c2.4-1.8,4.2-3.3,4.2-5.4c0-2.1-5.4,1.2-7,2.4c-0.7,0.6-3.2,1.8-5.7,3.1c-0.4,0-0.8,0-1.3,0.1c-2.7,0.2-6.8,0.6-8.4,2
					c-2.1,1.8-3.2,7.9-3.7,10.3c-1.3,1.9-2.5,3.7-3.2,4.8c-2.1,3.3-44.8,34.5-44.8,34.5l3,26.6l48.4-55c0,0,1.2-1.2,4.5-2.4
					c3.3-1.2,7.9-2.1,11.8-4.2c3.9-2.1,4.2-2.4,8.5-5.1C276.7,179.6,275.4,179.2,273.7,178.2z"/>
				<path class="st15" d="M222.9,203c-11.8,8.9-24.4,18.1-24.4,18.1l3,26.6l29.7-33.8L222.9,203z"/>
			</g>
			<g>
				<path class="st5" d="M208,303.7c0,0,21.3-1,52.3,4S302.9,318,302,324c-3.8,24.3-60.6,104.5-60.6,104.5l1,11.3c0,0-2,2.7-9,3
					c-7,0.3-15.7-9.7-15.7-9.7s7.8-8.1,10.8-17.8c3-9.7,27.1-72,27.1-72s-31.7,7-66.7,0.7S208,303.7,208,303.7z"/>
				<path class="st14" d="M260.3,307.7c-31-5-52.3-4-52.3-4s-54,34-19,40.3c35,6.3,66.7-0.7,66.7-0.7s-10,26-18,47l23.5,9
					c16.8-25.5,38.5-60.6,40.8-75.4C302.9,318,291.3,312.7,260.3,307.7z"/>
				<g>
					<path class="st15" d="M241.4,428.5c0,0-2,0.7-3,3c-1,2.3-1.7,4.7-1.7,4.7s-6.3-1.3-10.7-3.3c-4.3-2-7.3-4-7.3-4s-3,0.3-3,2.3
						s-0.3,5.7-1.7,9c-0.9,2.1-2.7,6.9-3.9,10c-0.6,1.6,0.3,3.3,2,3.6c5.3,1.2,16.4,3.7,25.9,6.7c13,4,27.3,2,29,1.7
						c1.7-0.3,8.3-4.3,5.3-7c-3-2.7-20.7-9.7-24.3-14.3C244.4,436.1,241.4,428.5,241.4,428.5z"/>
					<path class="st5" d="M271.1,454.2c0,3.3-1.7,6.6-7,6.6c-5.3,0-14.7-0.7-28-6c-10.5-4.2-20.8-6.8-24.7-7.6
						c-0.4,1.1-0.8,2.1-1.2,3c-0.6,1.6,0.3,3.3,2,3.6c5.3,1.2,16.4,3.7,25.9,6.7c13,4,27.3,2,29,1.7c1.7-0.3,8.3-4.3,5.3-7
						C272.1,454.9,271.6,454.6,271.1,454.2z"/>
				</g>
			</g>
			<g>
				<path class="st15" d="M140.7,226c0,0-3.6,28.7-3.3,34.2c0.3,5.4,4.2,52.3,5.1,62.6c0.9,10.3,5.1,19.4,12.7,21.2
					c7.6,1.8,27.2,4.5,35.7,2.4c8.5-2.1,17.5-21.2,20.6-28.4c3-7.3,5.1-11.8,4.2-13.3c-0.9-1.5-4.8-4.8-4.8-4.8s-7.6-55-9.4-69.3
					c-1.8-14.2-0.9-15.4-7.6-20.9C187.2,204.2,152.8,199.7,140.7,226z"/>
				<path class="st2" d="M189.1,326.3c-1.1,0.8-2.2,1.6-3.4,2.4"/>
				<path class="st2" d="M209,302c0,0-6.4,12.6-17.1,21.9"/>
				<path class="st2" d="M204.3,302.7c0,0-10.3,9.7-20.7,15.7"/>
			</g>
			<g>
				<g>
					<path class="st5" d="M212.6,135.6c0,0,3,6.4,3.9,10.9c0.9,4.5,1.2,8.8,3.3,9.7s6,1.2,5.4,3.6c-0.6,2.4-4.5,6.4-4.5,6.4
						s0.9,14.5,0.6,17.2c-0.3,2.7-16.3,2.7-17.2,2.7c-0.9,0-10,21.5-10,21.5l-25.4-12.7l4.8-15.7c0,0-7.9-15.1-8.5-21.8
						c-0.6-6.7,14.8-18.8,23.6-21.5C197.5,133.2,212.6,135.6,212.6,135.6z"/>
					<polygon class="st14" points="204.2,186.1 196.1,183.8 199.1,195.6 					"/>
					
						<ellipse transform="matrix(0.9725 -0.2328 0.2328 0.9725 -29.7194 54.1217)" class="st11" cx="214.5" cy="153" rx="1.2" ry="3.2"/>
					<path class="st2" d="M210.5,168.9c0,0,3.6,2.7,7,1.5"/>
				</g>
				<path class="st14" d="M211.1,129.8c0,0,4.2,7.6,1.2,12.4c-3,4.8-10.3,7-14.2,11.5c-3.9,4.5-6,12.4-7.6,13
					c-1.5,0.6-6-8.5-8.8-7.9s-7.3,7-3.3,13.6c3.9,6.7,10.9,5.7,10.9,5.7s-10.9,5.7-13,5.7c-2.1,0-8.5-3.6-11.5-7
					c-3-3.3-13.9-13.3-14.5-21.5s10.3-18.4,10.3-18.4s-13-0.9-9.7-5.7c3.3-4.8,15.1-7.9,15.1-7.9s-2.1-7.6,0.9-9.1
					c3-1.5,21.5,4.5,21.5,4.5s-5.1-6.7,2.1-7C197.8,111.7,210.2,120.8,211.1,129.8z"/>
				<g>
					<line class="st2" x1="187.1" y1="162.7" x2="225.6" y2="147.1"/>
					<path class="st2" d="M215.6,144.9c0.8-0.3,1.7-0.5,2.6-0.5c3.8,0,6.8,3,6.8,6.8c0,2.5-1.4,4.8-3.5,5.9"/>
				</g>
			</g>
			<g>
				<path class="st15" d="M201.5,216c0,0-0.3-8.8-2.7-11.2c-2.4-2.4-20.3-12.4-28.4-14.5c-8.2-2.1-16.6,0.9-22.1,2.7
					c-5.4,1.8-9.1,7-11.2,18.1c-2.1,11.2-2.4,18.1,2.1,18.8c4.5,0.6,10.9-13,25.1-15.7c14.2-2.7,27.2-0.3,30.2,1.2
					C197.5,217,201.5,216,201.5,216z"/>
				<path class="st2" d="M155.5,206.8c-2.7,1-4.6,1.7-4.6,1.7"/>
				<path class="st2" d="M201.5,216c0,0-19.1-10.6-26-12.7c-3.6-1.1-10.2,0.3-15.6,2"/>
			</g>
			<g>
				<path class="st5" d="M291.3,265.2c0,0-1,6.3-2.2,7c-1.2,0.7-1.1-5.8-1.1-5.8s-1.4,3.8-2.3,4.7c-0.9,0.9-0.4-3.9-0.4-3.9l1-4.5
					L291.3,265.2z"/>
				<path class="st5" d="M278.5,259l9.3,0.2c0,0,2.5,0.4,2.8,1.8s1.8,4.6,1.8,4.6l-14.4-4.2L278.5,259z"/>
				<path class="st5" d="M281.8,261.9c0,0,13-1.8,13.3-0.7c0.3,0.8,1.3,7.9,1.5,10.2c0,0.4-0.4,0.5-0.7,0.3l-3.6-6.3l-9.8,0.7
					C282.5,266.1,279.7,263.7,281.8,261.9z"/>
				<path class="st15" d="M174.3,222.7c0,0-8.1,6-5.3,20.7c2.8,14.7,22.4,55,24.2,58.5c1.8,3.5,9.5,3.9,13,2.8
					c3.5-1.1,65.8-25.9,65.8-25.9s6.7-1.8,7.7-3.2c1.1-1.4,7.7-8.8,7.7-8.8s10.5,1.4,13,0.7c2.5-0.7-2.5-1.4-4.9-2.1
					c-1.9-0.5-12.3-4.6-17-6.5c-1.4-0.5-2.9-0.2-4,0.9c-3.3,3.4-10.3,10.5-11.6,11.6c-1.8,1.4-51.1,9.8-51.1,9.8
					s-11.6-54.3-16.1-58.8c-4.6-4.6-12.6-3.5-12.6-3.5"/>
				<path class="st5" d="M239.4,291.7c16.3-6.5,32.6-12.9,32.6-12.9s6.7-1.8,7.7-3.2c1.1-1.4,7.7-8.8,7.7-8.8s10.5,1.4,13,0.7
					c2.5-0.7-2.5-1.4-4.9-2.1c-1.9-0.5-12.3-4.6-17-6.5c-1.4-0.5-2.9-0.2-4,0.9c-3.3,3.4-10.3,10.5-11.6,11.6
					c-0.9,0.7-14.7,3.4-27.7,5.7L239.4,291.7z"/>
			</g>
		</g>
	</g>
	<g>
		<g>
			<path class="st16" d="M130,360.6l-15.2,101.3c-0.2,1,1.3,1.4,1.6,0.4l23-100.1L130,360.6z"/>
			<path class="st16" d="M152.8,361.2l6.6,100.5c0.1,1,1.6,1,1.7,0l1.2-101.3L152.8,361.2z"/>
			<path class="st16" d="M175.1,362.8l18.2,98.7c0.2,1,1.7,0.8,1.6-0.3l-10.6-100.6L175.1,362.8z"/>
			<path class="st16" d="M210.3,361.9l14.9,99.4c0.2,1,1.7,0.8,1.6-0.2l-7.2-101L210.3,361.9z"/>
		</g>
		<path class="st5" d="M196.1,341.7c0,0-17.5-5.8-25.7-26.8c-8.2-21-21.6-57.2-30.9-61.8c-9.3-4.7-27.4,4.1-28.6,37.9
			c-1.2,33.8,1.6,59,9.1,67.3c6.7,7.3,18,16.7,57.3,17.3c35.1,0.6,49.5-12.8,54.3-17.3c5-4.7,12.8-14.2,6.4-14.2
			C231.7,344,204.2,344,196.1,341.7z"/>
	</g>
</g>
<g id="Butterfly">
	<g>
		<g>
			<path class="st5" d="M276.9,134c0,0-6.8-8-16.3-9.5c-9.5-1.5-10.1,12.3,2,18.4c5.2,2.6,10.9,1.7,10.9,1.7s-9.7,11.5-3.4,13.3
				c14.1,4.1,11-17.5,11-17.5L276.9,134z"/>
			<path class="st5" d="M279.2,133.5c0,0-4-9.7-1-18.9s14.9-2.9,14.8,10.6c-0.1,5.8-2.7,10-2.7,10s15.3-3.2,13.4,3
				c-4.3,14.2-20.6,1.9-20.6,1.9L279.2,133.5z"/>
			<g>
				<path class="st11" d="M284.5,145.6c-0.3,0-0.7-0.2-0.9-0.5l-9.5-15.9c-0.3-0.5-0.1-1.1,0.3-1.4c0.5-0.3,1.1-0.1,1.4,0.3
					l9.5,15.9c0.3,0.5,0.1,1.1-0.3,1.4C284.9,145.5,284.7,145.6,284.5,145.6z"/>
			</g>
			<path class="st2" d="M275.8,130.5c0,0-3.4-7.2-9.5-8"/>
			<path class="st2" d="M275.9,128.1c0,0-2-5.9-0.5-9.7"/>
		</g>
		
			<ellipse transform="matrix(0.9801 0.1986 -0.1986 0.9801 31.8519 -49.8977)" class="st3" cx="264.6" cy="133.8" rx="5.3" ry="3.3"/>
		<ellipse transform="matrix(0.549 -0.8358 0.8358 0.549 -1.5917 297.5995)" class="st3" cx="275" cy="150.3" rx="3.6" ry="2.2"/>
		
			<ellipse transform="matrix(0.9999 -1.287806e-002 1.287806e-002 0.9999 -1.765 3.8001)" class="st3" cx="294.2" cy="139" rx="3.6" ry="2.2"/>
		<ellipse transform="matrix(0.11 0.9939 -0.9939 0.11 375.9652 -173.5283)" class="st3" cx="284.9" cy="123.2" rx="5.3" ry="3.3"/>
	</g>
</g>
<g id="Floor">
	<line class="st5" x1="24.2" y1="462.9" x2="489.9" y2="462.9"/>
</g>
</svg>
