<?xml version="1.0" encoding="utf-8"?>
<!-- Generator: Adobe Illustrator 19.0.0, SVG Export Plug-In . SVG Version: 6.00 Build 0)  -->
<svg version="1.1" id="Capa_1" xmlns="http://www.w3.org/2000/svg" xmlns:xlink="http://www.w3.org/1999/xlink" x="0px" y="0px"
	 viewBox="0 0 150 99.5" style="enable-background:new 0 0 150 99.5;" xml:space="preserve">
<style type="text/css">
	.st0{fill:#FFFFFF;}
</style>
<g id="XMLID_1_">
	<path id="XMLID_92_" class="st0" d="M110.5,3c0.9,0.3,1.7,0.7,2.2,1.5c0.3,0.5,0.5,1,0.5,1.6c0,11.3,0,22.6,0,33.9
		c0,1.7-1.4,3.1-3.1,3.1c-1.7,0-3.1-1.2-3.2-2.9c0-0.2,0-0.4,0-0.7c0-11,0-22,0-33c0-1.7,0.8-2.9,2.2-3.4c0.2-0.1,0.4,0,0.5-0.2
		C109.8,3,110.1,3,110.5,3z"/>
	<path id="XMLID_91_" class="st0" d="M40.5,3c0.3,0.1,0.6,0.2,0.8,0.3c1.1,0.5,1.8,1.4,1.9,2.7c0,0.1,0,0.3,0,0.4
		c0,11.1,0,22.2,0,33.2c0,1.2-0.4,2.2-1.4,2.9c-1,0.7-2.2,0.8-3.3,0.2c-1.1-0.6-1.7-1.5-1.7-2.8c0-11.2,0-22.4,0-33.6
		c0-1.7,0.9-2.8,2.5-3.3c0.1,0,0.1-0.1,0.1-0.1C39.9,3,40.2,3,40.5,3z"/>
	<path id="XMLID_90_" class="st0" d="M1.9,26.3c0.4-1,0.9-1.9,2-2.3c2.1-0.8,4.3,0.6,4.3,2.8c0,2.3,0,4.5,0,6.8
		c0,1.6-1.1,2.9-2.7,3.1C4,37,2.5,36.1,2,34.5c0-0.1,0-0.2-0.1-0.3C1.9,31.5,1.9,28.9,1.9,26.3z"/>
	<path id="XMLID_89_" class="st0" d="M148.1,34.2c-0.4,1.2-1,2.1-2.3,2.5c-2,0.6-4-0.9-4-2.9c0-2.3,0-4.5,0-6.8
		c0-1.6,1.1-2.9,2.5-3.1c1.6-0.3,3.1,0.5,3.6,2.1c0,0.1,0,0.3,0.2,0.4C148.1,28.9,148.1,31.5,148.1,34.2z"/>
	<path id="XMLID_11_" class="st0" d="M133.3,60.5c-2.6-4.8-8-7.4-13.6-6.6c-6.9,0.9-11.6,6.1-11.6,13c0.1,6.9,5.4,12.6,12.3,12.6
		h2.2c0.3,0,0.7,0.2,1,0.1C133.3,78.2,137.5,68.3,133.3,60.5z M121.5,73.6c-3.8,0-6.7-3-6.6-6.7c0.1-3.8,2.9-6.6,6.7-6.6
		c3.7,0,6.6,2.9,6.6,6.7C128.1,70.7,125.2,73.6,121.5,73.6z"/>
	<path id="XMLID_83_" class="st0" d="M66.4,80c-0.9,0-1.7,0-2.6,0c-1.6-0.1-3.3-0.3-4.9-0.5c-0.4-0.1-0.6-0.2-0.6-0.7
		c0-1.7,0-3.4,0-5.2c1,0.2,2,0.5,3,0.6c1.7,0.3,3.5,0.4,5.2,0.1c0.3-0.1,0.6-0.1,0.8-0.2c0.9-0.3,1.6-0.8,1.7-1.8
		c0.1-1-0.5-1.6-1.3-2c-0.9-0.5-1.9-0.8-2.8-1.1c-1.6-0.5-3.1-1.2-4.4-2.3c-3.4-2.9-3-9.7,2.2-12c2.2-1,4.6-1.1,7-0.9
		c1.3,0.1,2.5,0.3,3.8,0.6c0.4,0.1,0.6,0.2,0.6,0.7c0,1.4,0,2.9,0,4.3c0,0.5-0.2,0.5-0.6,0.4c-1.8-0.5-3.7-0.8-5.5-0.6
		c-0.7,0.1-1.3,0.2-1.9,0.5c-1.2,0.7-1.3,2.1-0.2,2.9c0.6,0.5,1.3,0.7,2,0.9c1,0.3,2.1,0.6,3,1c3.2,1.3,4.9,3.8,4.9,7
		c0,3.4-1.8,6-5,7.3C69.3,79.6,67.9,79.9,66.4,80z"/>
	<path id="XMLID_82_" class="st0" d="M29.8,80c-0.8,0-1.6,0-2.3,0c-6-0.4-10.8-4.3-12.1-10c-1.7-7.8,3-15.1,11.3-16.1
		c2.5-0.3,5,0,7.4,0.7c0.2,0.1,0.4,0.1,0.4,0.4c0,2.1,0,4.3,0,6.5c-1.1-0.5-2.2-1-3.4-1.1c-2.7-0.5-5.3-0.2-7.2,1.9
		c-1.9,2-2.2,4.4-1.4,6.9c0.8,2.5,2.6,3.9,5.1,4.4c2.2,0.4,4.3,0,6.3-0.9c0.1-0.1,0.3-0.1,0.4-0.2c0,0,0.1,0,0.2,0
		c0,2.1,0,4.3,0,6.4c0,0.3-0.2,0.4-0.4,0.5C32.6,79.7,31.2,79.9,29.8,80z"/>
	<path id="XMLID_81_" class="st0" d="M96.7,80c-0.7,0-1.5,0-2.2,0c-5.6-0.3-10.2-3.7-11.8-8.8c-2-6.3,0.6-13,6.2-15.9
		c3.2-1.7,6.7-1.9,10.2-1.2c0.7,0.1,1.3,0.3,2,0.5c0.2,0,0.4,0.1,0.4,0.4c0,2.1,0,4.3,0,6.5c-1.1-0.5-2.2-1-3.4-1.1
		c-2.5-0.4-5-0.2-6.9,1.7c-2,1.9-2.5,4.4-1.8,7c0.7,2.6,2.6,4.1,5.2,4.6c2.2,0.4,4.4,0,6.4-0.9c0.5-0.2,0.5-0.1,0.5,0.3
		c0,1.9,0,3.8,0,5.7c0,0.4-0.1,0.5-0.5,0.6C99.5,79.7,98.1,79.9,96.7,80z"/>
	<path id="XMLID_80_" class="st0" d="M43.2,66.9c0-4,0-8,0-12.1c0-0.5,0.2-0.6,0.7-0.6c1.7,0,3.5,0,5.2,0c0.4,0,0.6,0.1,0.6,0.5
		c0,8.1,0,16.2,0,24.4c0,0.4-0.1,0.5-0.5,0.5c-1.8,0-3.5,0-5.3,0c-0.5,0-0.6-0.1-0.6-0.6C43.2,75,43.2,70.9,43.2,66.9z"/>
	<path id="XMLID_79_" class="st0" d="M60.7,25.9c0,2.5,0,5.1,0,7.6c0,1.3-0.6,2.3-1.7,2.9c-1.1,0.6-2.2,0.5-3.2-0.1
		C55,35.7,54.5,35,54.4,34c0-0.2,0-0.5,0-0.7c0-4.9,0-9.8,0-14.7c0-1.5,0.6-2.7,2-3.3c2.1-0.9,4.4,0.6,4.4,3
		C60.7,20.8,60.7,23.4,60.7,25.9z"/>
	<path id="XMLID_78_" class="st0" d="M89.3,25.9c0-2.6,0-5.1,0-7.7c0-1.5,1-2.8,2.4-3.1c1.4-0.3,2.9,0.3,3.6,1.6
		c0.3,0.6,0.4,1.2,0.4,1.8c0,5,0,9.9,0,14.9c0,1.3-0.5,2.4-1.7,3.1c-1.1,0.6-2.2,0.5-3.2-0.2c-1-0.6-1.4-1.6-1.4-2.8
		C89.3,30.9,89.3,28.4,89.3,25.9z"/>
	<path id="XMLID_77_" class="st0" d="M130.6,26c0,2.4,0,4.8,0,7.2c0,1.8-0.8,2.9-2.1,3.4c-2.1,0.7-4.2-0.8-4.2-3.1c0-4.5,0-9,0-13.5
		c0-0.8-0.1-1.6,0.1-2.4c0.3-1.6,1.7-2.7,3.3-2.6c1.5,0.1,2.9,1.3,2.9,2.9C130.6,20.6,130.6,23.3,130.6,26
		C130.6,26,130.6,26,130.6,26z"/>
	<path id="XMLID_76_" class="st0" d="M19.4,25.8c0-2.4,0-4.9,0-7.3c0-1.7,0.7-2.8,2.1-3.3c2.1-0.8,4.3,0.8,4.3,3.1c0,3.7,0,7.3,0,11
		c0,1.4,0,2.8,0,4.3c0,1.6-1.2,3-2.7,3.2c-1.6,0.2-3.1-0.7-3.5-2.3c-0.1-0.5-0.1-1-0.1-1.5C19.4,30.6,19.4,28.2,19.4,25.8
		C19.4,25.8,19.4,25.8,19.4,25.8z"/>
	<path id="XMLID_75_" class="st0" d="M78.2,30.3c0,1.2,0,2.4,0,3.5c0,1.7-1.4,3-3.1,3c-1.7,0-3.2-1.3-3.2-3c0-2.4,0-4.7,0-7.1
		c0-1.6,1.5-3,3.1-3c1.7,0,3.2,1.4,3.2,3C78.2,27.9,78.2,29.1,78.2,30.3z"/>
</g>
<g id="XMLID_18_">
	<path id="XMLID_46_" class="st0" d="M22.5,98.3h-1.1v-8.6h-3.1v-1h7.2v1h-3.1V98.3z"/>
	<path id="XMLID_48_" class="st0" d="M34.4,98.3h-5.4v-9.6h5.4v1h-4.3v3.1h4v1h-4v3.5h4.3V98.3z"/>
	<path id="XMLID_50_" class="st0" d="M42.7,89.6c-1.1,0-1.9,0.4-2.5,1.1c-0.6,0.7-0.9,1.7-0.9,2.9c0,1.3,0.3,2.2,0.9,2.9
		c0.6,0.7,1.4,1,2.5,1c0.7,0,1.4-0.1,2.3-0.4v1c-0.7,0.3-1.5,0.4-2.5,0.4c-1.4,0-2.5-0.4-3.3-1.3c-0.8-0.9-1.2-2.1-1.2-3.7
		c0-1,0.2-1.9,0.6-2.6c0.4-0.7,0.9-1.3,1.6-1.7c0.7-0.4,1.5-0.6,2.5-0.6c1,0,1.9,0.2,2.6,0.6l-0.5,1C44.2,89.7,43.4,89.6,42.7,89.6z
		"/>
	<path id="XMLID_52_" class="st0" d="M56.7,98.3h-1.3l-5.3-8.1h-0.1c0.1,0.9,0.1,1.8,0.1,2.6v5.5h-1v-9.6h1.3l5.3,8.1h0.1
		c0-0.1,0-0.5-0.1-1.1s0-1.1,0-1.4v-5.5h1V98.3z"/>
	<path id="XMLID_54_" class="st0" d="M69.7,93.5c0,1.5-0.4,2.8-1.2,3.6c-0.8,0.9-1.9,1.3-3.3,1.3c-1.4,0-2.5-0.4-3.3-1.3
		c-0.8-0.9-1.2-2.1-1.2-3.7c0-1.6,0.4-2.8,1.2-3.6c0.8-0.9,1.9-1.3,3.3-1.3c1.4,0,2.5,0.4,3.2,1.3S69.7,92,69.7,93.5z M62,93.5
		c0,1.3,0.3,2.3,0.8,3c0.6,0.7,1.4,1,2.4,1c1.1,0,1.9-0.3,2.4-1c0.5-0.7,0.8-1.7,0.8-3c0-1.3-0.3-2.3-0.8-2.9c-0.5-0.7-1.3-1-2.4-1
		c-1.1,0-1.9,0.3-2.4,1C62.3,91.2,62,92.2,62,93.5z"/>
	<path id="XMLID_57_" class="st0" d="M73.9,98.3v-9.6H75v8.6h4.3v1H73.9z"/>
	<path id="XMLID_59_" class="st0" d="M91.3,93.5c0,1.5-0.4,2.8-1.2,3.6c-0.8,0.9-1.9,1.3-3.3,1.3c-1.4,0-2.5-0.4-3.3-1.3
		c-0.8-0.9-1.2-2.1-1.2-3.7c0-1.6,0.4-2.8,1.2-3.6c0.8-0.9,1.9-1.3,3.3-1.3c1.4,0,2.5,0.4,3.2,1.3C90.9,90.8,91.3,92,91.3,93.5z
		 M83.6,93.5c0,1.3,0.3,2.3,0.8,3c0.6,0.7,1.4,1,2.4,1c1.1,0,1.9-0.3,2.4-1c0.5-0.7,0.8-1.7,0.8-3c0-1.3-0.3-2.3-0.8-2.9
		c-0.5-0.7-1.3-1-2.4-1c-1.1,0-1.9,0.3-2.4,1C83.9,91.2,83.6,92.2,83.6,93.5z"/>
	<path id="XMLID_62_" class="st0" d="M99.7,93.3h3.3V98c-0.5,0.2-1,0.3-1.6,0.4c-0.5,0.1-1.1,0.1-1.8,0.1c-1.5,0-2.6-0.4-3.4-1.3
		c-0.8-0.9-1.2-2.1-1.2-3.6c0-1,0.2-1.9,0.6-2.6c0.4-0.8,1-1.3,1.7-1.7c0.8-0.4,1.6-0.6,2.7-0.6c1,0,2,0.2,2.9,0.6l-0.4,1
		c-0.9-0.4-1.7-0.6-2.5-0.6c-1.2,0-2.1,0.3-2.7,1c-0.7,0.7-1,1.7-1,2.9c0,1.3,0.3,2.3,1,3c0.6,0.7,1.6,1,2.8,1c0.7,0,1.3-0.1,2-0.2
		v-3h-2.2V93.3z"/>
	<path id="XMLID_64_" class="st0" d="M107.3,98.3v-9.6h1.1v9.6H107.3z"/>
	<path id="XMLID_66_" class="st0" d="M119.1,98.3l-1.2-3.1h-3.9l-1.2,3.1h-1.1l3.8-9.7h0.9l3.8,9.7H119.1z M117.6,94.3l-1.1-3
		c-0.1-0.4-0.3-0.8-0.4-1.4c-0.1,0.4-0.2,0.9-0.4,1.4l-1.1,3H117.6z"/>
	<path id="XMLID_69_" class="st0" d="M129.1,95.8c0,0.8-0.3,1.5-0.9,2s-1.5,0.7-2.5,0.7c-1.1,0-2-0.1-2.6-0.4V97
		c0.4,0.2,0.8,0.3,1.3,0.4s0.9,0.1,1.4,0.1c0.7,0,1.3-0.1,1.7-0.4s0.6-0.7,0.6-1.2c0-0.3-0.1-0.6-0.2-0.8c-0.1-0.2-0.4-0.4-0.7-0.6
		c-0.3-0.2-0.8-0.4-1.4-0.6c-0.9-0.3-1.5-0.7-1.9-1.1c-0.4-0.4-0.6-1-0.6-1.7c0-0.7,0.3-1.3,0.8-1.8c0.6-0.4,1.3-0.7,2.2-0.7
		c1,0,1.8,0.2,2.6,0.5l-0.3,1c-0.8-0.3-1.6-0.5-2.3-0.5c-0.6,0-1.1,0.1-1.4,0.4s-0.5,0.6-0.5,1.1c0,0.3,0.1,0.6,0.2,0.8
		c0.1,0.2,0.3,0.4,0.6,0.6c0.3,0.2,0.7,0.4,1.3,0.6c1,0.4,1.7,0.7,2.1,1.2C128.9,94.6,129.1,95.1,129.1,95.8z"/>
</g>
</svg>
